<svg id="Layer_1" enable-background="new 0 0 64 64" viewBox="0 0 64 64" xmlns="http://www.w3.org/2000/svg"><g><g fill="black"><g><path d="m52.835 25.612c-1.278-.542-1.874-2.016-1.334-3.292 1.18-2.787 1.779-5.743 1.779-8.79s-.599-6.002-1.779-8.789c-.54-1.276.057-2.75 1.334-3.292 1.264-.54 2.75.054 3.292 1.334 1.445 3.407 2.176 7.023 2.176 10.747s-.731 7.34-2.176 10.747c-.545 1.284-2.022 1.871-3.292 1.335z"/><path d="m43.575 21.704c-1.278-.542-1.874-2.019-1.332-3.294.658-1.543.989-3.187.989-4.879s-.331-3.336-.989-4.879c-.542-1.276.054-2.752 1.332-3.294 1.271-.532 2.75.054 3.294 1.332.92 2.168 1.386 4.469 1.386 6.841s-.466 4.673-1.386 6.842c-.547 1.283-2.026 1.868-3.294 1.331z"/></g><g><path d="m7.873 24.277c-1.445-3.407-2.176-7.023-2.176-10.747s.731-7.339 2.176-10.746c.544-1.283 2.024-1.869 3.292-1.334 1.278.542 1.874 2.016 1.334 3.292-1.18 2.787-1.778 5.743-1.778 8.789 0 3.047.598 6.003 1.778 8.79.54 1.275-.056 2.75-1.334 3.292-1.27.536-2.747-.052-3.292-1.336z"/><path d="m17.13 20.372c-.92-2.168-1.386-4.47-1.386-6.842 0-2.374.466-4.678 1.388-6.844.542-1.276 2.016-1.877 3.294-1.327 1.276.542 1.872 2.016 1.327 3.295-.655 1.54-.986 3.182-.986 4.877 0 1.693.331 3.336.989 4.879.542 1.276-.054 2.752-1.332 3.294-1.267.537-2.748-.048-3.294-1.332z"/></g></g><path d="m51.387 55.654h-2.108c-.022-.11-.055-.209-.099-.318l-2.505-6.261-.593-1.472-1.471-3.703-.143-.352-4.086-10.194-1.461-3.68-4.361-10.888c1.893-.95 3.201-2.887 3.201-5.153 0-3.202-2.584-5.786-5.786-5.786s-5.786 2.584-5.786 5.786c0 2.265 1.307 4.201 3.198 5.152l-4.362 10.89-1.461 3.68-4.086 10.205-.121.308-1.483 3.702-.604 1.494-2.505 6.272c-.044.11-.077.209-.099.318h-2.053c-1.942 0-3.509 1.567-3.509 3.509v2.417c0 .655.514 1.17 1.17 1.17h11.84 1.505 2.812 11.183 2.812 13.301c.655 0 1.17-.515 1.17-1.17v-2.417c-.001-1.942-1.568-3.509-3.51-3.509zm-12.851-16.565.132.319 2.45 6.13-2.417-1.736-3.383-2.406 1.878-1.34zm-4.315-10.783h-2.221-2.265l.002-.005 2.241-5.602 2.241 5.602zm-6.033 3.862.002-.005h3.81 3.766l.002.005 1.296 3.24-1.351.967-.253.187-3.46 2.472-3.449-2.472-.264-.187-1.395-.989zm-2.9 7.239.132-.341 1.384.989 1.889 1.34-3.372 2.406-2.505 1.791zm-3.174 16.247h-3.328l1.351-3.394.615-1.538.363.253.406.297 6.14 4.383h-5.547zm2.746-6.767 7.14-5.108 7.162 5.119-7.14 5.108zm11.523 6.767 6.118-4.372.395-.286.33-.231.571 1.45 1.373 3.438h-8.787z" fill="black"/></g></svg>