<svg id="Layer_1" height="512" viewBox="0 0 512 512" width="512" xmlns="http://www.w3.org/2000/svg" data-name="Layer 1"><path d="m465.839 208.154-31.865-57.354a54.944 54.944 0 0 0 -24.651-23.109l-73.656-34.891a77.176 77.176 0 0 0 -46.859-6.258l-205.355 36.739a10.666 10.666 0 0 0 -8.786 10.5v79.552a10.667 10.667 0 0 0 10.666 10.667h371.183a10.666 10.666 0 0 0 9.323-15.846z" fill="#ffd188"/><path d="m311.9 173.974 61.082 15.27a32 32 0 0 1 17.839 11.845l25.179 33.578-198.936-32 68.908-27.022a42.667 42.667 0 0 1 25.928-1.671z" fill="#f9a06f"/><rect fill="#00cf66" height="224" rx="32" width="341.333" x="170.667" y="202.667"/><path d="m182.109 210.176a31.933 31.933 0 0 0 -11.443 24.49v160a32.035 32.035 0 0 0 32 32h277.334a31.848 31.848 0 0 0 20.557-7.51z" fill="#00b157"/><path d="m170.667 352h341.333v37.333h-341.333z" fill="#2d4a60"/><path d="m398.223 352h-227.556v37.333h284.445z" fill="#263f52"/><rect fill="#fac100" height="32" rx="10.667" width="64" x="416" y="234.667"/><path d="m336.958 235.031-92.113-9a32 32 0 0 1 -27.322-21.954l-11.937-36.713a10.667 10.667 0 0 0 -10.143-7.364h-110.056a10.668 10.668 0 0 0 -10.668 10.661l-.052 85.755a10.664 10.664 0 0 0 6.194 9.689l63.7 29.405a99.192 99.192 0 0 0 41.781 9.161h145.71a35.018 35.018 0 0 0 34.9-37.407c-1.107-16.256-13.962-29.318-29.994-32.233z" fill="#ffd188"/><path d="m332.052 283.339h-145.708a99.192 99.192 0 0 1 -41.781-9.161l-63.7-29.4a10.662 10.662 0 0 1 -6.185-9.6l-.013 21.244a10.67 10.67 0 0 0 6.2 9.69l63.7 29.4a99.192 99.192 0 0 0 41.781 9.161h145.706a34.705 34.705 0 0 0 33.254-45.514 35.029 35.029 0 0 1 -33.254 24.18z" fill="#f9a06f"/><rect fill="#00cf66" height="203.042" rx="32" width="96" y="97.698"/><path d="m64 268.74h-32a32.035 32.035 0 0 1 -32-32v32a32.035 32.035 0 0 0 32 32h32a32.035 32.035 0 0 0 32-32v-32a32.035 32.035 0 0 1 -32 32z" fill="#00b157"/></svg>