<svg id="Layer_1" enable-background="new 0 0 66 66" height="512" viewBox="0 0 66 66" width="512" xmlns="http://www.w3.org/2000/svg"><g><g><g><path d="m24.86 51.13h16.27l3.78 7.52h-23.82z" fill="#5d5b68"/></g><g><path d="m16.4 58.65h33.19v4h-33.19z" fill="#848792"/></g><g><path d="m60.52 3.35h-55.04c-1.92 0-3.48 1.56-3.48 3.48v36.23h62v-36.23c0-1.92-1.56-3.48-3.48-3.48z" fill="#e6e9ee"/></g><g><path d="m60.95 3.39c.02.15.05.29.05.44 0 20.01-16.22 36.23-36.23 36.23h-22.77v3h62v-36.23c0-1.77-1.33-3.22-3.05-3.44z" fill="#c8ced6"/></g><g><path d="m2 43.06v4.6c0 1.92 1.56 3.48 3.48 3.48h55.04c1.92 0 3.48-1.56 3.48-3.48v-4.6z" fill="#848792"/></g><g><path d="m46.11 15.05h4.81v23.01h-4.81z" fill="#2c92bf"/></g><g><path d="m30.02 25.06h4.81v13h-4.81z" fill="#2c92bf" transform="matrix(-1 0 0 -1 64.849 63.117)"/></g><g><path d="m54.15 25.06h4.81v13h-4.81z" fill="#4ec4a5"/></g><g><path d="m56.95 25.06h2v13h-2z" fill="#30aa87" transform="matrix(-1 0 0 -1 115.908 63.117)"/></g><g><path d="m38.06 31.06h4.81v6.99h-4.81z" fill="#4ec4a5" transform="matrix(-1 0 0 -1 80.934 69.122)"/></g><g><path d="m17.4 8.36c-.08 0-.15-.01-.23-.01-5.61 0-10.17 4.56-10.17 10.18 0 2.87 1.19 5.45 3.1 7.3l7.3-7.3z" fill="#e1533b"/></g><g><path d="m10.1 25.83c1.83 1.78 4.32 2.87 7.08 2.87 5.62 0 10.18-4.56 10.18-10.18h-9.96z" fill="#f8ce01"/></g><g><path d="m17.4 8.36v10.17h9.95c0-5.55-4.43-10.05-9.95-10.17z" fill="#5f6fe7"/></g><g><path d="m40.87 31.06h2v6.99h-2z" fill="#30aa87" transform="matrix(-1 0 0 -1 83.739 69.122)"/></g><g><path d="m48.91 15.05h2v23.01h-2z" fill="#1f81a3" transform="matrix(-1 0 0 -1 99.824 53.109)"/></g><g><path d="m32.83 25.06h2v13h-2z" fill="#1f81a3" transform="matrix(-1 0 0 -1 67.655 63.117)"/></g></g><g><g><path d="m44.91 59.4h-23.82c-.26 0-.5-.13-.64-.36s-.15-.5-.03-.73l3.78-7.51c.13-.25.39-.41.67-.41h16.27c.28 0 .54.16.67.41l3.78 7.51c.12.23.11.51-.03.73s-.39.36-.65.36zm-22.61-1.5h21.39l-3.02-6.01h-15.34z"/></g><g><path d="m49.6 63.4h-33.2c-.41 0-.75-.34-.75-.75v-4c0-.41.34-.75.75-.75h33.2c.41 0 .75.34.75.75v4c0 .41-.34.75-.75.75zm-32.45-1.5h31.69v-2.5h-31.69z"/></g><g><path d="m64 43.81h-62c-.41 0-.75-.34-.75-.75v-36.23c0-2.33 1.9-4.23 4.23-4.23h55.04c2.33 0 4.23 1.9 4.23 4.23v36.23c0 .41-.34.75-.75.75zm-61.25-1.5h60.5v-35.48c0-1.5-1.22-2.73-2.73-2.73h-55.04c-1.5 0-2.73 1.22-2.73 2.73z"/></g><g><path d="m60.52 51.88h-55.04c-2.33 0-4.23-1.9-4.23-4.23v-4.6c0-.41.34-.75.75-.75h62c.41 0 .75.34.75.75v4.6c0 2.34-1.9 4.23-4.23 4.23zm-57.77-8.07v3.85c0 1.5 1.22 2.73 2.73 2.73h55.04c1.5 0 2.73-1.22 2.73-2.73v-3.85z"/></g><g><circle cx="33" cy="47.1" r="1"/></g><g><g><path d="m50.91 38.81h-4.81c-.41 0-.75-.34-.75-.75v-23.01c0-.41.34-.75.75-.75h4.81c.41 0 .75.34.75.75v23.01c0 .41-.33.75-.75.75zm-4.05-1.5h3.31v-21.51h-3.31z"/></g><g><path d="m34.83 38.81h-4.81c-.41 0-.75-.34-.75-.75v-13c0-.41.34-.75.75-.75h4.81c.41 0 .75.34.75.75v13c0 .41-.34.75-.75.75zm-4.06-1.5h3.31v-11.5h-3.31z"/></g><g><path d="m58.96 38.81h-4.81c-.41 0-.75-.34-.75-.75v-13c0-.41.34-.75.75-.75h4.81c.41 0 .75.34.75.75v13c0 .41-.34.75-.75.75zm-4.06-1.5h3.31v-11.5h-3.31z"/></g><g><path d="m42.87 38.81h-4.81c-.41 0-.75-.34-.75-.75v-6.99c0-.41.34-.75.75-.75h4.81c.41 0 .75.34.75.75v6.99c0 .41-.34.75-.75.75zm-4.06-1.5h3.31v-5.49h-3.31z"/></g></g><g><g><path d="m24.09 35.31h-17.09c-.41 0-.75-.34-.75-.75s.34-.75.75-.75h17.09c.41 0 .75.34.75.75s-.34.75-.75.75z"/></g><g><path d="m17.4 38.81h-10.4c-.41 0-.75-.34-.75-.75s.34-.75.75-.75h10.4c.41 0 .75.34.75.75s-.33.75-.75.75z"/></g></g><g><path d="m10.1 26.58c-.19 0-.38-.07-.52-.21-2.15-2.08-3.33-4.86-3.33-7.84 0-6.03 4.9-10.93 10.93-10.93.06 0 .11 0 .17.01.41.01.81.34.81.75v10.17c0 .2-.08.39-.22.53l-7.3 7.3c-.16.15-.35.22-.54.22zm6.55-17.46c-4.99.3-8.9 4.4-8.9 9.41 0 2.32.83 4.51 2.36 6.23l6.54-6.54z"/></g><g><path d="m17.18 29.45c-2.85 0-5.55-1.09-7.6-3.08-.14-.14-.23-.33-.23-.53s.08-.39.22-.54l7.3-7.3c.14-.14.33-.22.53-.22h9.95c.41 0 .75.34.75.75 0 6.02-4.9 10.92-10.92 10.92zm-5.99-3.65c1.69 1.39 3.78 2.15 5.99 2.15 4.95 0 9.01-3.83 9.4-8.68h-8.86z"/></g><g><path d="m27.35 19.28h-9.95c-.41 0-.75-.34-.75-.75v-10.17c0-.2.08-.4.23-.54.14-.14.35-.22.54-.21 5.89.13 10.68 5.03 10.68 10.92 0 .41-.33.75-.75.75zm-9.2-1.5h8.42c-.36-4.48-3.94-8.15-8.42-8.62z"/></g></g></g></svg>