<svg id="Layer_1" enable-background="new 0 0 64 64" viewBox="0 0 64 64" fill="white" xmlns="http://www.w3.org/2000/svg"><g><path d="m30.252 63.29h18.281c5.227 0 9.479-4.253 9.479-9.479v-43.622c0-5.227-4.252-9.479-9.479-9.479h-18.281c-5.227 0-9.479 4.252-9.479 9.479v7.811c0 1.381 1.119 2.5 2.5 2.5s2.5-1.119 2.5-2.5v-7.811c0-2.47 2.009-4.479 4.479-4.479h18.281c2.47 0 4.479 2.009 4.479 4.479v43.621c0 2.47-2.009 4.479-4.479 4.479h-18.281c-2.47 0-4.479-2.01-4.479-4.479v-7.81c0-1.381-1.119-2.5-2.5-2.5s-2.5 1.119-2.5 2.5v7.811c0 5.226 4.252 9.479 9.479 9.479z"/><path d="m33.023 39.759 7.428-5.786c.608-.474.964-1.202.964-1.973s-.355-1.499-.964-1.972l-7.428-5.786c-1.089-.849-2.66-.653-3.508.436-.848 1.09-.653 2.661.436 3.508l1.687 1.314h-23.151c-1.381 0-2.5 1.119-2.5 2.5s1.119 2.5 2.5 2.5h23.15l-1.686 1.313c-.633.493-.964 1.229-.964 1.975 0 .537.172 1.078.528 1.534.848 1.09 2.419 1.284 3.508.437z"/></g></svg>