<svg width="144" height="55" viewBox="0 0 144 55" fill="none" xmlns="http://www.w3.org/2000/svg">
<path d="M8.27988 51.1056V21.268C8.33849 20.4808 8.1755 19.6928 7.81452 19.0181C7.61215 18.7756 7.36368 18.5892 7.08819 18.473C6.8127 18.3569 6.51751 18.3142 6.22527 18.3482C5.68027 18.3622 5.14898 18.5455 4.68871 18.8781C4.14231 19.2766 3.72826 19.8713 3.51214 20.568V51.1056H0V3.10938H3.51214V17.1083C3.97365 16.3414 4.57204 15.694 5.26821 15.2084C6.00013 14.7204 6.83474 14.4681 7.68281 14.4785C8.27836 14.4224 8.87673 14.5376 9.42293 14.8137C9.96913 15.0898 10.4456 15.5178 10.8086 16.0584C11.5653 17.6055 11.9043 19.3724 11.7832 21.138V51.1056H8.27988Z" fill="#D52B1E"/>
<path d="M16.2871 21.6181C16.1735 19.6894 16.6825 17.7799 17.7183 16.2485C18.287 15.5926 18.9743 15.0856 19.7325 14.7627C20.4906 14.4398 21.3014 14.3087 22.1085 14.3786C22.9154 14.3108 23.7257 14.4427 24.4836 14.7655C25.2414 15.0883 25.9289 15.5942 26.4987 16.2485C27.5513 17.7712 28.0707 19.6845 27.9562 21.6181V44.4463C28.0863 46.3756 27.572 48.2897 26.5162 49.8059C25.9434 50.4536 25.2548 50.9533 24.4972 51.2708C23.7397 51.5883 22.9309 51.7161 22.126 51.6457C21.321 51.7181 20.5118 51.5912 19.7539 51.2736C18.9961 50.956 18.3076 50.4553 17.7359 49.8059C16.6944 48.2894 16.1843 46.3866 16.3047 44.4663L16.2871 21.6181ZM24.5406 21.7381C24.5805 20.9139 24.4097 20.0942 24.0489 19.3783C23.5256 18.8309 22.841 18.5271 22.1304 18.5271C21.4199 18.5271 20.7352 18.8309 20.2119 19.3783C19.8512 20.0942 19.6804 20.9139 19.7202 21.7381V44.4463C19.6657 45.2719 19.8375 46.0964 20.2119 46.8061C20.4521 47.1027 20.7514 47.3292 21.0845 47.4667C21.4176 47.6041 21.7748 47.6485 22.126 47.596C22.481 47.6491 22.842 47.6021 23.1773 47.4591C23.5126 47.3162 23.8119 47.0816 24.0489 46.7761C24.4159 46.0484 24.5869 45.2138 24.5406 44.3763V21.7381Z" fill="#D52B1E"/>
<path d="M33.0586 14.9686V3.51953H36.5707V16.9085H40.1619V20.4682H36.6234V44.1563C36.5281 45.2566 36.7734 46.3601 37.3171 47.2761C37.6252 47.6114 37.9937 47.8665 38.397 48.0236C38.8003 48.1807 39.2287 48.2361 39.6526 48.186H39.9863C40.0996 48.1864 40.2122 48.1662 40.3199 48.126V51.3358C40.079 51.436 39.8285 51.5032 39.5736 51.5358C39.2835 51.5919 38.9899 51.6219 38.6956 51.6258C37.906 51.6913 37.1138 51.5445 36.3832 51.1971C35.6527 50.8497 35.004 50.3115 34.4898 49.6259C33.4942 48.0281 33.005 46.0924 33.1025 44.1363V18.5284" fill="#D52B1E"/>
<path d="M12.916 2.17951L14.0487 5.17928C16.4762 3.92066 19.1125 3.2694 21.7798 3.2694C24.4471 3.2694 27.0834 3.92066 29.5109 5.17928L30.6523 2.17951C27.866 0.743038 24.8427 0 21.7842 0C18.7257 0 15.7023 0.743038 12.916 2.17951Z" fill="black"/>
<path d="M15.2246 8.12899L16.3573 11.1288C18.0674 10.22 19.9316 9.74912 21.8187 9.74912C23.7058 9.74912 25.5699 10.22 27.28 11.1288L28.4127 8.12899C26.3465 7.05048 24.1003 6.49219 21.8274 6.49219C19.5545 6.49219 17.3084 7.05048 15.2422 8.12899H15.2246Z" fill="black"/>
<path d="M61.6829 22.5879V13.8086H59.5405V22.5779H58.0039V3.65942H59.5405V12.0988H61.6829V3.65942H63.2107V22.5879H61.6829Z" fill="#171515"/>
<path d="M64.589 10.9688C64.544 10.2079 64.7437 9.45439 65.1509 8.84894C65.631 8.37074 66.2472 8.10718 66.885 8.10718C67.5228 8.10718 68.139 8.37074 68.6191 8.84894C69.0294 9.453 69.2323 10.2066 69.1899 10.9688V19.9681C69.2351 20.7275 69.0318 21.4791 68.6191 22.0779C68.1335 22.5427 67.5194 22.7975 66.885 22.7975C66.2506 22.7975 65.6366 22.5427 65.1509 22.0779C64.7414 21.4777 64.5412 20.7262 64.589 19.9681V10.9688ZM67.8377 11.0188C67.8558 10.6938 67.7885 10.3701 67.6445 10.0888C67.4396 9.87094 67.1697 9.74974 66.8894 9.74974C66.6091 9.74974 66.3392 9.87094 66.1343 10.0888C65.9903 10.3701 65.923 10.6938 65.9411 11.0188V19.9581C65.9204 20.2769 65.988 20.5951 66.1343 20.868C66.2295 20.9843 66.3476 21.0731 66.4789 21.127C66.6102 21.1809 66.751 21.1984 66.8894 21.178C67.0286 21.1972 67.1697 21.1781 67.3011 21.1224C67.4325 21.0668 67.5502 20.9761 67.6445 20.858C67.7908 20.5741 67.8581 20.2464 67.8377 19.9181V11.0188Z" fill="#171515"/>
<path d="M76.6005 22.5879V10.7389C76.6005 10.0389 76.3634 9.67896 75.898 9.67896C75.707 9.68183 75.5221 9.75556 75.3712 9.88894C75.1857 10.0664 75.0461 10.298 74.9673 10.5589V22.5579H73.5712V10.7389C73.5712 10.0389 73.3342 9.67896 72.8688 9.67896C72.6839 9.68609 72.5056 9.75958 72.3595 9.88894C72.1768 10.0693 72.0378 10.2999 71.9557 10.5589V22.5579H70.5684V8.34906H71.7449C71.7875 8.70025 71.8081 9.05446 71.8064 9.40898C71.9571 9.01531 72.1927 8.67136 72.4913 8.40906C72.767 8.18252 73.0996 8.06329 73.4395 8.06908C73.7599 8.04728 74.076 8.16222 74.326 8.39147C74.576 8.62073 74.7421 8.94784 74.7917 9.30899C74.9549 8.94324 75.1965 8.63029 75.4941 8.39906C75.7833 8.18202 76.1224 8.06722 76.4688 8.06908C76.6933 8.04846 76.9185 8.09699 77.1209 8.20958C77.3232 8.32217 77.4953 8.49469 77.619 8.70904C77.9071 9.32187 78.035 10.0158 77.9878 10.7089V22.5879H76.6005Z" fill="#171515"/>
<path d="M82.3942 16.8083H83.7112V19.938C83.7112 21.8479 82.9649 22.8078 81.4723 22.8078C79.9796 22.8078 79.3035 21.8079 79.3035 19.938V11.0387C79.257 10.256 79.4562 9.47995 79.8654 8.84892C80.0679 8.59759 80.3175 8.40145 80.5957 8.27508C80.8739 8.1487 81.1735 8.09535 81.4723 8.11898C82.9649 8.11898 83.7112 9.1189 83.7112 11.0387V15.6184H80.603V19.9181C80.603 20.758 80.8957 21.178 81.481 21.178C82.0664 21.178 82.3591 20.758 82.3591 19.9181L82.3942 16.8083ZM82.3942 11.0587C82.3942 10.2188 82.0869 9.78885 81.5162 9.78885C80.9454 9.78885 80.6381 10.2188 80.6381 11.0587V14.4885H82.3942V11.0587Z" fill="#171515"/>
<path d="M85.082 22.5879V3.65942H86.4781V22.5879H85.082Z" fill="#171515"/>
<path d="M91.0605 22.5879C90.9998 22.3067 90.9732 22.0174 90.9815 21.728C90.8501 22.0508 90.6389 22.3229 90.3738 22.5112C90.1087 22.6994 89.8012 22.7956 89.4888 22.7879C89.2477 22.8082 89.0055 22.7717 88.7773 22.6805C88.5492 22.5893 88.34 22.4454 88.163 22.2579C87.9872 22.0218 87.8546 21.7479 87.7732 21.4526C87.6918 21.1572 87.6631 20.8463 87.6888 20.5381V18.4482C87.6712 17.8547 87.7577 17.2632 87.9435 16.7084C88.0982 16.2628 88.3313 15.8579 88.6283 15.5184C88.9294 15.1906 89.2729 14.9175 89.6469 14.7085C90.0332 14.4885 90.4547 14.2685 90.9025 14.0486V10.9488C90.9178 10.6273 90.8507 10.3077 90.7093 10.0289C90.5117 9.82229 90.2532 9.70767 89.9849 9.70767C89.7166 9.70767 89.4581 9.82229 89.2605 10.0289C89.1301 10.3118 89.0694 10.6297 89.0849 10.9488V13.9486H87.8469V10.9488C87.8005 10.2016 87.9836 9.45933 88.3649 8.84897C88.5788 8.59689 88.84 8.40302 89.1288 8.28183C89.4177 8.16064 89.7268 8.11525 90.0332 8.14903C91.4995 8.14903 92.2283 9.07895 92.2283 10.9488V20.948C92.2283 21.288 92.2283 21.598 92.2283 21.9479C92.2301 22.1807 92.2567 22.4124 92.3073 22.6379L91.0605 22.5879ZM90.9025 15.3185C90.5553 15.4529 90.2247 15.6377 89.919 15.8684C89.6902 16.0454 89.4984 16.2776 89.3571 16.5484C89.2229 16.8165 89.1364 17.1121 89.1025 17.4183C89.0574 17.796 89.0368 18.177 89.041 18.5582V20.0781C89.041 20.858 89.3571 21.248 89.9893 21.248C90.1893 21.2518 90.3845 21.1777 90.5425 21.038C90.7365 20.8699 90.8656 20.6225 90.9025 20.3481V15.3185Z" fill="#171515"/>
<path d="M96.9792 22.5879V10.8088C97.0036 10.5005 96.9388 10.1915 96.7948 9.92891C96.7168 9.83131 96.6197 9.756 96.5114 9.70909C96.4031 9.66219 96.2866 9.645 96.1714 9.65893C95.9562 9.66352 95.7464 9.73623 95.5655 9.86892C95.3486 10.0262 95.1846 10.2622 95.1002 10.5389V22.5379H93.6953V8.34904H94.8719C94.9104 8.70739 94.9309 9.06794 94.9333 9.42895C95.1042 9.04286 95.3616 8.71513 95.6797 8.47903C95.9871 8.23935 96.352 8.11364 96.7245 8.11906C96.9611 8.09737 97.1988 8.14261 97.4163 8.25077C97.6338 8.35893 97.8245 8.52665 97.9713 8.73901C98.2774 9.34487 98.4152 10.0421 98.3665 10.7389V22.5879H96.9792Z" fill="#171515"/>
<path d="M103.239 22.5879C103.239 22.418 103.239 22.248 103.239 22.068C103.239 21.888 103.239 21.708 103.239 21.528C103.106 21.8867 102.887 22.1953 102.606 22.418C102.276 22.655 101.89 22.7702 101.5 22.7479C100.324 22.7479 99.744 21.858 99.744 20.0781V10.7389C99.6927 10.0354 99.847 9.33224 100.183 8.73903C100.359 8.52192 100.576 8.35393 100.818 8.24814C101.061 8.14235 101.321 8.1016 101.579 8.12907C101.886 8.1236 102.189 8.20979 102.457 8.37905C102.717 8.53761 102.937 8.768 103.098 9.049V3.65942H104.468V22.5879H103.239ZM103.037 10.6689C102.969 10.3994 102.826 10.1623 102.629 9.99292C102.433 9.82352 102.194 9.73093 101.948 9.72895C101.827 9.7174 101.705 9.73453 101.59 9.77928C101.475 9.82403 101.37 9.89542 101.281 9.98893C101.121 10.2553 101.049 10.5779 101.079 10.8989V19.8981C101.046 20.2257 101.117 20.5559 101.281 20.8281C101.367 20.9266 101.472 21.002 101.588 21.0487C101.703 21.0954 101.826 21.1123 101.948 21.0981C102.201 21.0908 102.444 20.989 102.641 20.8082C102.838 20.6275 102.977 20.3779 103.037 20.0981V10.6689Z" fill="#171515"/>
<path d="M111.256 6.66921C111.256 4.52271 112.134 3.44946 113.89 3.44946C115.646 3.44946 116.524 4.52271 116.524 6.66921V19.5682C116.524 21.728 115.646 22.8079 113.89 22.8079C112.134 22.8079 111.256 21.7347 111.256 19.5882V6.66921ZM114.952 6.66921C114.952 5.66929 114.592 5.21932 113.864 5.21932C113.135 5.21932 112.792 5.69929 112.792 6.66921V19.5682C112.792 20.5681 113.152 21.0681 113.864 21.0681C114.575 21.0681 114.952 20.5681 114.952 19.5682V6.66921Z" fill="#171515"/>
<path d="M117.902 25.8076V8.34898H119.07C119.113 8.70684 119.134 9.06772 119.132 9.42889C119.259 9.06413 119.475 8.74843 119.755 8.51896C120.082 8.2935 120.462 8.18549 120.844 8.20899C121.093 8.19164 121.343 8.2404 121.573 8.35144C121.803 8.46248 122.007 8.63278 122.17 8.84894C122.511 9.44002 122.672 10.1431 122.626 10.8488V20.1581C122.681 20.8606 122.53 21.5641 122.196 22.1579C122.015 22.3618 121.797 22.5183 121.557 22.6168C121.318 22.7152 121.062 22.7531 120.809 22.7278C120.503 22.7299 120.202 22.6476 119.931 22.4879C119.683 22.3386 119.472 22.1222 119.316 21.8579V25.8076H117.902ZM121.248 11.1188C121.276 10.787 121.202 10.4543 121.037 10.1788C120.946 10.084 120.84 10.0119 120.723 9.9671C120.607 9.92232 120.483 9.90588 120.361 9.91886C120.134 9.92003 119.914 10.0003 119.729 10.1488C119.518 10.3161 119.364 10.5592 119.29 10.8388V20.318C119.368 20.595 119.522 20.8365 119.729 21.008C119.914 21.1565 120.134 21.2368 120.361 21.238C120.484 21.2496 120.608 21.2316 120.724 21.1851C120.841 21.1386 120.947 21.0646 121.037 20.968C121.199 20.7137 121.274 20.4008 121.248 20.0881V11.1188Z" fill="#171515"/>
<path d="M126.902 22.6778C126.809 22.7187 126.711 22.7456 126.612 22.7578H126.261C125.95 22.7847 125.638 22.7282 125.35 22.5927C125.061 22.4572 124.805 22.2467 124.601 21.9779C124.211 21.3487 124.019 20.5874 124.057 19.8181V9.74886H123.469V8.34897H124.057V3.80933H125.453V8.31897H126.867V9.71886H125.453V19.8081C125.416 20.2416 125.512 20.6763 125.725 21.038C125.841 21.1645 125.98 21.2619 126.131 21.3239C126.282 21.3859 126.443 21.4111 126.603 21.3979H126.735C126.778 21.4095 126.823 21.4095 126.867 21.3979L126.902 22.6778Z" fill="#171515"/>
<path d="M127.939 6.5292V3.65942H129.336V6.5292H127.939ZM127.939 22.5879V8.34906H129.336V22.5879H127.939Z" fill="#171515"/>
<path d="M133.935 16.8084H135.226V19.9781C135.263 20.7209 135.073 21.4553 134.691 22.058C134.482 22.3279 134.221 22.5383 133.928 22.6721C133.635 22.8058 133.319 22.8592 133.005 22.8279C132.678 22.8624 132.349 22.8089 132.044 22.6717C131.739 22.5344 131.466 22.3174 131.249 22.038C130.854 21.4289 130.656 20.684 130.687 19.9281V11.0588C130.659 10.3003 130.857 9.55334 131.249 8.93899C131.462 8.6516 131.733 8.42701 132.039 8.28427C132.344 8.14154 132.676 8.08486 133.005 8.11906C133.319 8.08795 133.635 8.14454 133.926 8.28393C134.216 8.42332 134.473 8.6413 134.673 8.919C135.036 9.54618 135.214 10.2886 135.182 11.0388V14.1186H133.935V11.0188C133.935 10.1689 133.619 9.74893 133.005 9.74893C132.873 9.73899 132.741 9.76565 132.62 9.8266C132.499 9.88756 132.393 9.981 132.311 10.0989C132.141 10.3726 132.057 10.704 132.074 11.0388V19.8881C132.074 20.7481 132.381 21.178 133.005 21.178C133.628 21.178 133.935 20.7581 133.935 19.9181V16.8084Z" fill="#171515"/>
<path d="M139.652 22.5879C139.584 22.3083 139.554 22.0181 139.564 21.728C139.434 22.0516 139.223 22.3245 138.958 22.5129C138.692 22.7013 138.384 22.7969 138.072 22.7879C137.832 22.8069 137.592 22.7696 137.365 22.6785C137.138 22.5873 136.931 22.4442 136.755 22.2579C136.579 22.0218 136.446 21.748 136.365 21.4526C136.284 21.1572 136.255 20.8463 136.281 20.5381V18.4482C136.265 17.8558 136.348 17.2653 136.526 16.7084C136.681 16.2628 136.914 15.8579 137.211 15.5185C137.514 15.1883 137.861 14.9149 138.239 14.7085C138.625 14.4886 139.046 14.2686 139.485 14.0486V10.9488C139.505 10.6269 139.438 10.3059 139.292 10.0289C139.208 9.90988 139.099 9.8178 138.974 9.76169C138.849 9.70559 138.714 9.68741 138.581 9.70893C138.446 9.68579 138.307 9.70312 138.18 9.75921C138.052 9.8153 137.939 9.90824 137.852 10.0289C137.714 10.309 137.65 10.6284 137.668 10.9488V13.9486H136.439V10.9488C136.392 10.2017 136.575 9.45935 136.957 8.849C137.169 8.59771 137.429 8.40427 137.716 8.28309C138.004 8.1619 138.311 8.11608 138.616 8.14905C140.083 8.14905 140.82 9.07898 140.82 10.9488V20.948C140.82 21.288 140.82 21.598 140.82 21.948C140.829 22.1808 140.858 22.412 140.908 22.6379L139.652 22.5879ZM139.485 15.3185C139.141 15.4528 138.813 15.6377 138.511 15.8684C138.28 16.0453 138.085 16.2773 137.94 16.5484C137.809 16.8172 137.725 17.1128 137.694 17.4183C137.649 17.7961 137.629 18.1771 137.633 18.5582V20.0781C137.633 20.8581 137.949 21.248 138.581 21.248C138.781 21.2518 138.976 21.1778 139.134 21.038C139.325 20.8682 139.451 20.621 139.485 20.3481V15.3185Z" fill="#171515"/>
<path d="M142.295 22.5879V3.65942H143.691V22.5879H142.295Z" fill="#171515"/>
<path d="M59.338 50.5857V33.4271H57.4766V31.6572H62.7448V33.4271H60.8833V50.5857H59.338Z" fill="#171515"/>
<path d="M66.0368 44.8061H67.3538V47.9359C67.3538 49.8457 66.6075 50.8056 65.1148 50.8056C63.6222 50.8056 62.9637 49.8057 62.9637 47.9159V39.0366C62.9172 38.2538 63.1163 37.4778 63.5256 36.8467C63.7281 36.5954 63.9777 36.3993 64.2558 36.2729C64.534 36.1465 64.8336 36.0932 65.1324 36.1168C66.6251 36.1168 67.3714 37.1167 67.3714 39.0366V43.6162H64.2632V47.9159C64.2632 48.7558 64.5558 49.1758 65.1412 49.1758C65.7265 49.1758 66.0339 48.7558 66.0631 47.9159L66.0368 44.8061ZM66.0368 39.0566C66.0368 38.2166 65.7295 37.7867 65.1148 37.7867C64.5002 37.7867 64.2368 38.2166 64.2368 39.0566V42.4863H65.9929L66.0368 39.0566Z" fill="#171515"/>
<path d="M71.8136 44.8061H73.1043V47.9758C73.1408 48.7186 72.9516 49.453 72.5687 50.0557C72.3583 50.3269 72.0937 50.5366 71.7973 50.6671C71.5009 50.7976 71.1813 50.8451 70.8653 50.8056C70.5386 50.8418 70.209 50.789 69.9037 50.6517C69.5984 50.5143 69.3261 50.2963 69.1093 50.0157C68.708 49.4102 68.506 48.6635 68.5386 47.9058V39.0565C68.5091 38.2962 68.7107 37.5476 69.1093 36.9367C69.3216 36.648 69.5924 36.4225 69.8983 36.2796C70.2043 36.1367 70.5362 36.0809 70.8653 36.1168C71.1796 36.0848 71.496 36.141 71.7868 36.2804C72.0777 36.4199 72.3341 36.6383 72.5336 36.9167C72.8991 37.543 73.0805 38.2853 73.0517 39.0366V42.1163H71.7961V39.0165C71.7961 38.1666 71.4887 37.7467 70.8653 37.7467C70.7336 37.7376 70.6018 37.7646 70.4811 37.8255C70.3604 37.8864 70.2543 37.9794 70.1717 38.0966C70.0045 38.3716 69.9241 38.7029 69.9434 39.0366V47.8859C69.9434 48.7458 70.2507 49.1758 70.8653 49.1758C71.4887 49.1758 71.7961 48.7558 71.7961 47.9159L71.8136 44.8061Z" fill="#171515"/>
<path d="M77.7145 50.5857V38.8067C77.7389 38.4983 77.6742 38.1893 77.5301 37.9267C77.4517 37.8298 77.3546 37.7549 77.2464 37.708C77.1382 37.6612 77.0219 37.6436 76.9067 37.6568C76.6916 37.6613 76.4818 37.7341 76.3009 37.8667C76.0839 38.024 75.9199 38.2601 75.8355 38.5367V50.5357H74.4395V31.6572H75.8355V37.1468C76.0207 36.846 76.2602 36.5937 76.538 36.4069C76.8234 36.2095 77.1524 36.1089 77.4862 36.1169C77.7216 36.0942 77.9583 36.139 78.1746 36.2473C78.3908 36.3556 78.5798 36.5239 78.7243 36.7368C79.0192 37.347 79.1505 38.0423 79.1018 38.7367V50.5857H77.7145Z" fill="#171515"/>
<path d="M83.8092 50.5858V38.8067C83.8314 38.4998 83.7701 38.1926 83.6336 37.9268C83.5539 37.829 83.4552 37.7537 83.3455 37.7069C83.2358 37.66 83.118 37.6429 83.0015 37.6568C82.7863 37.6614 82.5765 37.7341 82.3956 37.8668C82.1809 38.0269 82.0176 38.262 81.9303 38.5368V50.5358H80.5254V36.3469H81.6932C81.7361 36.7048 81.7566 37.0657 81.7546 37.4268C81.9218 37.0246 82.1793 36.6797 82.501 36.4269C82.8111 36.1859 83.1792 36.0601 83.5546 36.0669C83.7899 36.0461 84.026 36.0917 84.242 36.1999C84.458 36.308 84.6472 36.4753 84.7926 36.6869C85.0987 37.2928 85.2365 37.99 85.1878 38.6867V50.5858H83.8092Z" fill="#171515"/>
<path d="M86.5121 38.9666C86.4696 38.2045 86.6725 37.4508 87.0828 36.8468C87.5623 36.3713 88.1767 36.1094 88.8125 36.1094C89.4483 36.1094 90.0627 36.3713 90.5422 36.8468C90.9594 37.4472 91.1659 38.2026 91.1218 38.9666V47.9659C91.1715 48.7276 90.9642 49.4821 90.5422 50.0757C90.058 50.5397 89.4454 50.7942 88.8125 50.7942C88.1796 50.7942 87.5671 50.5397 87.0828 50.0757C86.6701 49.4769 86.4668 48.7253 86.5121 47.9659V38.9666ZM89.7696 38.9666C89.7877 38.6417 89.7204 38.3179 89.5764 38.0367C89.4869 37.9107 89.3704 37.8132 89.2381 37.7536C89.1058 37.6941 88.9622 37.6745 88.8213 37.6967C88.6793 37.6783 88.5355 37.6996 88.4024 37.7589C88.2692 37.8181 88.1508 37.9135 88.0574 38.0367C87.9207 38.3209 87.8568 38.6431 87.873 38.9666V47.9059C87.8542 48.2233 87.9183 48.5399 88.0574 48.8158C88.1535 48.9336 88.2731 49.0233 88.406 49.0773C88.539 49.1312 88.6815 49.1479 88.8213 49.1258C88.9604 49.145 89.1016 49.1259 89.233 49.0703C89.3643 49.0146 89.4821 48.9239 89.5764 48.8058C89.7227 48.5219 89.79 48.1942 89.7696 47.8659V38.9666Z" fill="#171515"/>
<path d="M92.4922 50.5857V31.6572H93.8883V50.5857H92.4922Z" fill="#171515"/>
<path d="M95.2582 38.9666C95.2157 38.2045 95.4186 37.4508 95.8289 36.8468C96.3084 36.3713 96.9228 36.1094 97.5586 36.1094C98.1944 36.1094 98.8088 36.3713 99.2883 36.8468C99.7055 37.4472 99.912 38.2026 99.8678 38.9666V47.9659C99.9176 48.7276 99.7103 49.4821 99.2883 50.0757C98.8041 50.5397 98.1915 50.7942 97.5586 50.7942C96.9257 50.7942 96.3132 50.5397 95.8289 50.0757C95.4162 49.4769 95.2129 48.7253 95.2582 47.9659V38.9666ZM98.5157 38.9666C98.5292 38.6421 98.4623 38.3199 98.3225 38.0367C98.1162 37.8181 97.8448 37.6966 97.563 37.6966C97.2812 37.6966 97.0098 37.8181 96.8035 38.0367C96.6637 38.3199 96.5968 38.6421 96.6103 38.9666V47.9059C96.5936 48.2244 96.6609 48.5412 96.8035 48.8158C96.8996 48.9336 97.0192 49.0233 97.1521 49.0773C97.2851 49.1312 97.4276 49.1479 97.5674 49.1258C97.7066 49.145 97.8477 49.1259 97.9791 49.0703C98.1105 49.0146 98.2282 48.9239 98.3225 48.8058C98.4644 48.52 98.5314 48.1938 98.5157 47.8659V38.9666Z" fill="#171515"/>
<path d="M104.373 49.0158C104.219 49.3014 103.997 49.5306 103.732 49.6757C103.44 49.8404 103.118 49.9227 102.792 49.9157C102.536 49.9436 102.278 49.904 102.037 49.8C101.797 49.6959 101.58 49.5303 101.405 49.3157C101.069 48.7228 100.917 48.0186 100.975 47.3159V38.8766C100.933 38.1713 101.093 37.4696 101.431 36.8767C101.595 36.6617 101.799 36.4923 102.029 36.3813C102.259 36.2704 102.508 36.2209 102.757 36.2368C103.128 36.217 103.495 36.3251 103.811 36.5467C104.106 36.7722 104.341 37.0874 104.487 37.4567C104.487 37.2767 104.487 37.0867 104.487 36.9067C104.487 36.7267 104.487 36.5467 104.487 36.3768H105.655V51.3756C105.699 52.0979 105.502 52.8126 105.102 53.3754C104.87 53.6274 104.593 53.8195 104.29 53.9385C103.987 54.0576 103.665 54.1009 103.345 54.0654C102.973 54.0763 102.602 54.0154 102.248 53.8854C101.978 53.7797 101.736 53.5973 101.546 53.3554C101.365 53.1119 101.236 52.8246 101.168 52.5155C101.093 52.1416 101.058 51.759 101.063 51.3756V50.8056H102.309V51.4456C102.309 52.2755 102.652 52.6855 103.319 52.6855C103.986 52.6855 104.294 52.2755 104.294 51.4456L104.373 49.0158ZM104.373 38.8266C104.278 38.5481 104.117 38.3056 103.907 38.1266C103.712 37.9702 103.479 37.8864 103.24 37.8866C103.11 37.8717 102.979 37.8899 102.856 37.9401C102.733 37.9902 102.621 38.0711 102.529 38.1766C102.402 38.4138 102.341 38.6891 102.353 38.9666V47.2659C102.329 47.5724 102.397 47.8791 102.546 48.1358C102.639 48.2333 102.749 48.307 102.868 48.3518C102.988 48.3967 103.115 48.4117 103.24 48.3958C103.478 48.3953 103.71 48.3153 103.907 48.1658C104.121 47.9951 104.283 47.7544 104.373 47.4759V38.8266Z" fill="#171515"/>
<path d="M106.865 52.1957C107.088 52.2665 107.318 52.3034 107.55 52.3057C107.674 52.3135 107.798 52.281 107.907 52.212C108.016 52.143 108.105 52.0402 108.165 51.9157C108.313 51.5834 108.411 51.2251 108.454 50.8558L108.533 50.2858L106.689 36.3469H108.147C108.208 36.8869 108.279 37.4768 108.358 38.1368C108.437 38.7967 108.498 39.4767 108.568 40.1366L108.779 42.2565C108.858 42.9564 108.92 43.6163 108.972 44.2563C109.025 44.8962 109.078 45.4262 109.122 45.9162C109.166 46.4061 109.209 46.7861 109.236 47.0461C109.236 46.7861 109.297 46.4061 109.35 45.9162C109.403 45.4262 109.446 44.9162 109.517 44.2563C109.587 43.5964 109.657 42.9864 109.727 42.2565L109.965 40.1366C110.044 39.4267 110.123 38.7467 110.21 38.1368C110.298 37.5268 110.386 36.8869 110.465 36.3469H111.8L109.903 50.8058C109.845 51.2545 109.763 51.6986 109.657 52.1357C109.581 52.4938 109.447 52.8328 109.262 53.1356C109.097 53.4011 108.873 53.6116 108.612 53.7456C108.293 53.8963 107.948 53.9678 107.603 53.9555C107.352 53.9417 107.104 53.8913 106.865 53.8056V52.1957Z" fill="#171515"/>
</svg>
