<svg id="Capa_1" enable-background="new 0 0 511.929 511.929" height="512" viewBox="0 0 511.929 511.929" width="512" xmlns="http://www.w3.org/2000/svg"><g><g><path d="m486.68 475.165h-461.433c-9.803 0-17.749-7.947-17.749-17.749v-356.367h496.931v356.366c0 9.803-7.946 17.75-17.749 17.75z" fill="#b3dafe"/></g><g><path d="m504.434 101.052v356.363c0 9.798-7.948 17.746-17.756 17.746h-19.995c9.808 0 17.756-7.948 17.756-17.746v-356.363z" fill="#8ac9fe"/></g><g><path d="m504.431 101.049h-496.931v-46.535c0-9.803 7.947-17.749 17.749-17.749h461.433c9.803 0 17.749 7.947 17.749 17.749z" fill="#9c9c9c"/></g><g><path d="m504.434 54.514v46.539h-19.995v-46.539c0-9.798-7.948-17.746-17.756-17.746h19.995c9.808 0 17.756 7.948 17.756 17.746z" fill="#838383"/></g><g><g><path d="m118.343 320.227h275.243v44.177h-275.243z" fill="#b0e7c9"/></g><g><path d="m118.343 394.654h275.243v44.177h-275.243z" fill="#b0e7c9"/></g></g><g><g><path d="m373.591 320.227h19.995v44.177h-19.995z" fill="#91deb6"/></g><g><path d="m373.591 394.654h19.995v44.177h-19.995z" fill="#91deb6"/></g></g><g><path d="m291.722 288.346h-71.514c-8.216 0-14.876-6.66-14.876-14.876v-59.844c0-8.216 6.66-14.876 14.876-14.876h71.514c8.216 0 14.876 6.66 14.876 14.876v59.844c0 8.216-6.66 14.876-14.876 14.876z" fill="#fedba6"/></g><g><path d="m306.602 213.625v59.845c0 8.218-6.668 14.876-14.876 14.876h-19.665c8.218 0 14.876-6.658 14.876-14.876v-59.845c0-8.218-6.658-14.876-14.876-14.876h19.665c8.208 0 14.876 6.658 14.876 14.876z" fill="#fece85"/></g><g><path d="m118.343 371.903h69.012c4.142 0 7.498-3.357 7.498-7.498s-3.357-7.498-7.498-7.498h-61.514v-29.181h260.246v29.181h-163.87c-4.141 0-7.498 3.357-7.498 7.498s3.357 7.498 7.498 7.498h171.369c4.142 0 7.498-3.357 7.498-7.498v-44.178c0-4.141-3.357-7.498-7.498-7.498h-275.243c-4.142 0-7.498 3.357-7.498 7.498v44.178c0 4.141 3.357 7.498 7.498 7.498z"/><path d="m118.343 446.33h275.243c4.142 0 7.498-3.357 7.498-7.498v-44.178c0-4.141-3.357-7.498-7.498-7.498h-275.243c-4.142 0-7.498 3.357-7.498 7.498v44.178c0 4.141 3.357 7.498 7.498 7.498zm7.498-44.178h260.246v29.181h-260.246z"/><circle cx="255.965" cy="243.548" r="10.036"/><path d="m220.207 295.845h71.515c12.337 0 22.374-10.037 22.374-22.375v-59.844c0-11.419-8.601-20.861-19.662-22.204v-23.068c0-21.212-17.258-38.47-38.47-38.47s-38.469 17.258-38.469 38.47v23.068c-11.062 1.344-19.662 10.785-19.662 22.204v59.844c0 12.337 10.037 22.375 22.374 22.375zm12.284-127.491c0-12.943 10.531-23.473 23.474-23.473s23.473 10.53 23.473 23.473v22.897h-46.947zm-19.662 45.272c0-4.068 3.31-7.378 7.378-7.378h71.515c4.068 0 7.378 3.31 7.378 7.378v59.844c0 4.068-3.31 7.379-7.378 7.379h-71.515c-4.068 0-7.378-3.31-7.378-7.379z"/><path d="m486.682 29.266h-94.8c-4.141 0-7.498 3.357-7.498 7.498s3.357 7.498 7.498 7.498h94.8c5.652 0 10.25 4.599 10.25 10.251v39.038h-481.934v-39.037c0-5.652 4.599-10.251 10.25-10.251h332.073c4.142 0 7.498-3.357 7.498-7.498s-3.357-7.498-7.498-7.498h-332.072c-13.921 0-25.247 11.326-25.247 25.247l-.002 402.902c0 13.921 11.325 25.247 25.247 25.247h461.433c13.921 0 25.247-11.326 25.247-25.247l.002-402.902c0-13.922-11.325-25.248-25.247-25.248zm10.249 428.15c0 5.652-4.599 10.251-10.25 10.251h-461.434c-5.652 0-10.25-4.599-10.25-10.251v-348.868h481.935v348.868z"/><circle cx="62.825" cy="68.907" r="10.036"/><circle cx="101.211" cy="68.907" r="10.036"/><circle cx="139.598" cy="68.907" r="10.036"/></g></g></svg>