<svg height="512" viewBox="0 0 64 64" width="512" xmlns="http://www.w3.org/2000/svg"><g id="Icons"><g><g><circle cx="38" cy="32" fill="#00a0c8" r="22"/></g><g><path d="m18.414 24.586c-.263-.264-.589-.443-.936-.528-.954 2.464-1.478 5.142-1.478 7.942s.524 5.478 1.478 7.942c.347-.085.673-.264.936-.528l6-6c.781-.781.781-2.047 0-2.828z" fill="#0082aa"/></g><g><g><g><path d="m42 16h-8c-3.314 0-6 2.686-6 6v6h20v-6c0-3.314-2.686-6-6-6z" fill="#0a5078"/></g><path d="m26 50.442c3.451 2.25 7.573 3.558 12 3.558s8.549-1.308 12-3.558v-8.442h-24z" fill="#c80a50"/><g><path d="m34 36h8v6h-8z" fill="#d2aa82"/></g><g><path d="m40 40h-4c-4.418 0-8-3.582-8-8v-4c1.105 0 2-.895 2-2v-4h16v4c0 1.105.895 2 2 2v4c0 4.418-3.582 8-8 8z" fill="#f0c8a0"/></g><g><path d="m28 32v-6c-1.105 0-2 .895-2 2v2c0 1.105.895 2 2 2z" fill="#d2aa82"/></g><g><path d="m48 32v-6c1.105 0 2 .895 2 2v2c0 1.105-.895 2-2 2z" fill="#d2aa82"/></g><path d="m20.023 44.684c1.609 2.276 3.639 4.233 5.977 5.758v-8.442c-2.377 0-4.512 1.037-5.977 2.684z" fill="#a00028"/><path d="m50 50.442c2.338-1.525 4.369-3.482 5.977-5.758-1.465-1.647-3.6-2.684-5.977-2.684z" fill="#a00028"/><g><path d="m42 42c0 2.209-1.791 4-4 4-2.209 0-4-1.791-4-4z" fill="#d2aa82"/></g></g><g><path d="m44 22h-14v-4c0-2.209 1.791-4 4-4h10c2.209 0 4 1.791 4 4 0 2.209-1.791 4-4 4z" fill="#0a5078"/></g></g><path d="m23.414 30.586-6-6c-.571-.572-1.433-.744-2.179-.434-.748.31-1.235 1.039-1.235 1.848v2h-8c-1.105 0-2 .895-2 2v4c0 1.105.895 2 2 2h8v2c0 .809.487 1.538 1.235 1.848.247.102.507.152.765.152.521 0 1.032-.203 1.415-.586l6-6c.78-.781.78-2.047-.001-2.828z" fill="#fab400"/></g></g></svg>