<svg id="Layer_1" enable-background="new 0 0 512 512" viewBox="0 0 512 512" xmlns="http://www.w3.org/2000/svg"><g><g><g><g><path d="m296.021 502h-175.458c-24.075 0-43.592-19.518-43.592-43.594v-404.812c0-24.076 19.517-43.594 43.592-43.594h175.458c24.075 0 43.592 19.518 43.592 43.594v404.812c.001 24.076-19.516 43.594-43.592 43.594z" fill="#fff"/></g><g><path d="m130.24 221.969c0-84.181 36.522-159.831 94.586-211.969h-104.263c-24.075 0-43.592 19.518-43.592 43.594v404.812c0 24.076 19.517 43.594 43.592 43.594h175.458c10.624 0 20.359-3.801 27.922-10.116-112.614-37.988-193.703-144.482-193.703-269.915z" fill="#d2dcfd"/></g><g><g><path d="m339.614 53.594c0-24.076-19.517-43.594-43.592-43.594h-175.459c-24.075 0-43.592 19.518-43.592 43.594v37.503h262.643z" fill="#bc9af4"/></g></g><g><path d="m224.826 10h-104.263c-24.075 0-43.592 19.518-43.592 43.594v37.503h85.053c15.925-30.726 37.283-58.183 62.802-81.097z" fill="#6864f7"/></g><g><path d="m76.971 458.406c0 24.076 19.517 43.594 43.592 43.594h175.458c24.075 0 43.592-19.518 43.592-43.594v-35.141h-262.642z" fill="#bc9af4"/></g><g><path d="m213.569 423.265h-136.598v35.141c0 24.076 19.517 43.594 43.592 43.594h175.458c10.624 0 20.359-3.801 27.922-10.116-42.045-14.184-79.697-37.917-110.374-68.619z" fill="#6864f7"/></g><g><g><g><path d="m72.279 84.322 4.691.998v71.511l-19.251-4.097c-16.147-3.437-27.691-17.697-27.691-34.206.001-22.245 20.495-38.837 42.251-34.206z" fill="#fde0be"/></g><g><path d="m72.279 155.832 4.691.998v71.511l-19.251-4.097c-16.147-3.437-27.691-17.697-27.691-34.206.001-22.245 20.495-38.837 42.251-34.206z" fill="#fde0be"/></g></g><g><g><path d="m72.279 227.343 4.691.998v71.511l-19.251-4.097c-16.147-3.437-27.691-17.697-27.691-34.206.001-22.245 20.495-38.837 42.251-34.206z" fill="#fde0be"/></g><g><path d="m72.279 298.853 4.691.998v71.511l-19.251-4.097c-16.147-3.437-27.691-17.697-27.691-34.206.001-22.245 20.495-38.837 42.251-34.206z" fill="#fde0be"/></g></g></g><g><g><path d="m444.918 310.552-7.806-156.996c-.64-14.967-5.613-29.426-14.315-41.62l-36.52-51.173c-17.178-16.397-45.646-4.23-45.646 19.509 0 6.942 2.678 13.617 7.476 18.636l29.545 44.36v57.425l-38.038-24.298v285.642l36.685 39.52 105.672-145.894z" fill="#fde0be"/></g><g><path d="m377.652 175.561v83.825" fill="#fde0be"/></g></g></g><g><ellipse cx="208.292" cy="253.216" fill="#fdcb50" rx="84.592" ry="84.595"/></g></g><g><g><g><path d="m221.684 468.636h-26.784c-5.523 0-10-4.477-10-10s4.477-10 10-10h26.783c5.523 0 10 4.477 10 10s-4.476 10-9.999 10z" fill="#052a75"/></g><g><g><path d="m242.213 65.67h-68.955c-5.523 0-10-4.477-10-10s4.477-10 10-10h68.955c5.523 0 10 4.477 10 10s-4.477 10-10 10z" fill="#fff"/></g></g></g><g fill="#052a75"><path d="m489.698 349.314-34.957-42.558-7.638-153.628c-.725-16.944-6.314-33.197-16.167-47.002l-33.385-46.779c-5.988-8.392-15.278-14.011-25.487-15.418-8.013-1.103-15.894.381-22.727 4.203-2.744-26.996-25.609-48.132-53.316-48.132h-175.457c-29.551 0-53.593 24.042-53.593 53.593v19.997c-10.897-.496-21.623 2.985-30.267 9.983-10.597 8.579-16.675 21.319-16.675 34.954 0 14.295 6.877 27.398 17.731 35.727-.355.271-.707.547-1.056.829-10.597 8.579-16.675 21.319-16.675 34.955 0 14.296 6.877 27.398 17.731 35.727-.355.271-.707.547-1.056.829-10.598 8.579-16.675 21.319-16.675 34.954 0 14.296 6.877 27.398 17.731 35.727-.355.271-.707.547-1.056.829-10.597 8.579-16.675 21.319-16.675 34.954 0 21.096 14.976 39.595 35.608 43.986l11.333 2.412v78.949c0 29.551 24.042 53.593 53.593 53.593h175.457c21.192 0 39.551-12.364 48.241-30.258l24.708 26.617c1.898 2.045 4.557 3.197 7.328 3.197.202 0 .404-.006.607-.019 2.987-.182 5.736-1.691 7.492-4.116l105.672-145.894c2.668-3.68 2.516-8.697-.37-12.211zm-122.047-166.876-18.038-11.522v-51.707l18.038 27.083zm-300.68-17.297v50.848l-7.169-1.526c-11.457-2.438-19.772-12.71-19.772-24.425 0-7.571 3.375-14.646 9.259-19.41 4.5-3.642 10.015-5.568 15.672-5.568.668 0 1.338.026 2.01.081zm0 71.51v50.849l-7.169-1.526c-11.457-2.438-19.772-12.711-19.772-24.425 0-7.571 3.375-14.646 9.259-19.409 4.5-3.643 10.015-5.569 15.672-5.569.668-.001 1.338.026 2.01.08zm-17.682-137.533c4.5-3.643 10.015-5.569 15.672-5.569.668 0 1.339.027 2.01.081v50.848l-7.169-1.526c-11.457-2.439-19.772-12.711-19.772-24.425-.001-7.571 3.374-14.645 9.259-19.409zm10.512 258.366c-11.457-2.438-19.772-12.71-19.772-24.425 0-7.571 3.375-14.646 9.259-19.41 4.5-3.643 10.014-5.568 15.672-5.568.668 0 1.339.027 2.01.081v50.848zm236.22 134.516h-175.457c-18.523 0-33.593-15.07-33.593-33.593v-404.814c0-18.523 15.07-33.593 33.593-33.593h175.457c18.523 0 33.593 15.07 33.593 33.593v404.813c-.001 18.524-15.07 33.594-33.593 33.594zm79.322-6.172-25.729-27.718v-263.463l18.038 11.522v53.216c0 5.523 4.478 10 10 10s10-4.477 10-10v-116.118c0-1.973-.583-3.901-1.677-5.543l-29.545-44.36c-.116-.175-.238-.346-.365-.513-3.403-4.471-5.435-9.174-5.435-12.58 0-5.267 2.194-9.931 6.18-13.135 3.506-2.819 7.958-4.025 12.524-3.394 4.781.659 9.133 3.291 11.938 7.223l33.385 46.78c7.596 10.644 11.906 23.175 12.468 36.308l7.806 156.997c.106 2.142.898 4.193 2.26 5.851l32.154 39.146z"/><path d="m208.292 158.621c-52.158 0-94.592 42.435-94.592 94.595s42.434 94.595 94.592 94.595 94.592-42.435 94.592-94.595-42.434-94.595-94.592-94.595zm0 169.191c-41.13 0-74.592-33.463-74.592-74.595s33.462-74.595 74.592-74.595 74.592 33.463 74.592 74.595-33.462 74.595-74.592 74.595z"/></g><path d="m218.022 244.644c-9.335-3.3-14.116-5.26-15.468-5.897-2.782-1.312-3.037-2.85-2.949-4.042.148-1.999 1.548-4.011 3.12-4.484 7.597-2.289 12.201.029 13.24 1.51 3.172 4.52 9.409 5.613 13.93 2.441 4.521-3.173 5.613-9.409 2.441-13.93-3.085-4.396-8.34-8.162-15.115-9.92-.759-4.771-4.879-8.421-9.863-8.421-5.2 0-9.469 3.969-9.952 9.042-.151.044-.3.082-.451.127-9.427 2.84-16.539 11.951-17.296 22.155-.744 10.035 4.76 19.082 14.364 23.611 2.895 1.365 9.212 3.794 17.332 6.664 5.457 1.929 7.902 6.16 7.498 9.343-.491 3.865-5.208 4.848-7.977 5.09-5.216.456-12.397-1.07-15.401-4.799-3.464-4.301-9.758-4.979-14.061-1.514-4.301 3.465-4.979 9.76-1.514 14.061 4.616 5.73 11.107 9.108 17.657 10.839.922 4.57 4.959 8.012 9.801 8.012 4.6 0 8.464-3.109 9.63-7.338 11.948-2.508 20.295-10.725 21.705-21.831 1.677-13.192-6.824-25.824-20.671-30.719z" fill="#fd6050"/></g></g><g/><g/><g/><g/><g/><g/><g/><g/><g/><g/><g/><g/><g/><g/><g/></svg>