<svg width="1433" height="488" viewBox="0 0 1433 488" fill="none" xmlns="http://www.w3.org/2000/svg">
<path d="M111.5 317.024V167.203C112.289 163.25 110.094 159.293 105.233 155.906C102.508 154.688 99.1618 153.752 95.4519 153.169C91.7421 152.586 87.7669 152.371 83.8316 152.542C76.4924 152.612 69.3379 153.532 63.1397 155.203C55.7817 157.204 50.206 160.19 47.2957 163.688V317.024H0V76.0243H47.2957V146.316C53.5105 142.465 61.5686 139.215 70.9435 136.776C80.7997 134.326 92.0388 133.059 103.459 133.111C111.479 132.829 119.537 133.408 126.892 134.794C134.248 136.181 140.664 138.33 145.552 141.044C155.742 148.812 160.307 157.685 158.677 166.55V317.024H111.5Z" fill="#D52B1E"/>
<path d="M184.2 168.6C182.744 158.88 189.267 149.257 202.542 141.54C209.83 138.234 218.639 135.679 228.355 134.052C238.07 132.425 248.461 131.764 258.804 132.116C269.146 131.774 279.53 132.439 289.242 134.066C298.955 135.693 307.765 138.243 315.067 141.54C328.557 149.214 335.213 158.855 333.746 168.6V283.643C335.413 293.366 328.823 303.012 315.292 310.653C307.951 313.917 299.126 316.435 289.418 318.035C279.709 319.635 269.344 320.279 259.029 319.925C248.713 320.29 238.342 319.65 228.63 318.049C218.917 316.449 210.094 313.925 202.767 310.653C189.419 303.01 182.883 293.421 184.425 283.744L184.2 168.6ZM289.974 169.204C290.485 165.051 288.296 160.92 283.673 157.312C276.966 154.554 268.192 153.023 259.086 153.023C249.98 153.023 241.205 154.554 234.499 157.312C229.876 160.92 227.687 165.051 228.198 169.204V283.643C227.499 287.804 229.701 291.959 234.499 295.535C237.577 297.03 241.412 298.171 245.681 298.864C249.95 299.557 254.528 299.781 259.029 299.516C263.579 299.784 268.205 299.547 272.502 298.826C276.798 298.106 280.634 296.924 283.673 295.384C288.375 291.717 290.567 287.511 289.974 283.29V169.204Z" fill="#D52B1E"/>
<path d="M359 136.601V79.0243H408.819V146.357H459.758V164.258H409.566V283.384C408.213 288.917 411.694 294.467 419.405 299.074C423.776 300.76 429.003 302.042 434.723 302.833C440.444 303.623 446.521 303.901 452.534 303.65H457.267C458.875 303.652 460.472 303.55 462 303.348V319.489C458.583 319.994 455.029 320.331 451.414 320.495C447.298 320.777 443.133 320.929 438.959 320.948C427.758 321.277 416.522 320.539 406.159 318.792C395.796 317.045 386.596 314.338 379.301 310.891C365.178 302.856 358.239 293.121 359.623 283.284V154.503" fill="#D52B1E"/>
<path d="M145 19.3574L157.07 46C182.938 34.8215 211.03 29.0373 239.453 29.0373C267.876 29.0373 295.969 34.8215 321.837 46L334 19.3574C304.309 6.59933 272.092 0 239.5 0C206.908 0 174.691 6.59933 145 19.3574Z" fill="#CFDCE5"/>
<path d="M170 72.8269L182.11 100C200.393 91.7685 220.324 87.5027 240.5 87.5027C260.676 87.5027 280.607 91.7685 298.89 100L311 72.8269C288.909 63.0573 264.895 58 240.594 58C216.293 58 192.279 63.0573 170.188 72.8269H170Z" fill="#CFDCE5"/>
<path d="M535.352 195.263V151.105H513.27V195.213H497.434V100.056H513.27V142.504H535.352V100.056H551.098V195.263H535.352Z" fill="white"/>
<path d="M565.306 136.821C564.842 132.994 566.901 129.204 571.098 126.158C576.046 123.753 582.397 122.427 588.971 122.427C595.544 122.427 601.895 123.753 606.844 126.158C611.072 129.197 613.164 132.987 612.726 136.821V182.086C613.192 185.906 611.097 189.686 606.844 192.698C601.838 195.036 595.509 196.317 588.971 196.317C582.432 196.317 576.103 195.036 571.098 192.698C566.877 189.679 564.814 185.899 565.306 182.086V136.821ZM598.789 137.072C598.976 135.438 598.283 133.81 596.799 132.395C594.687 131.299 591.905 130.689 589.016 130.689C586.126 130.689 583.345 131.299 581.233 132.395C579.749 133.81 579.056 135.438 579.242 137.072V182.035C579.029 183.639 579.725 185.24 581.233 186.612C582.214 187.197 583.432 187.644 584.785 187.915C586.139 188.186 587.589 188.274 589.016 188.171C590.45 188.268 591.905 188.172 593.259 187.892C594.613 187.612 595.827 187.156 596.799 186.562C598.306 185.134 599 183.486 598.789 181.834V137.072Z" fill="white"/>
<path d="M689.124 195.263V135.665C689.124 132.144 686.681 130.333 681.884 130.333C679.916 130.348 678.01 130.719 676.455 131.39C674.542 132.282 673.103 133.447 672.292 134.759V195.112H657.903V135.665C657.903 132.144 655.459 130.333 650.663 130.333C648.757 130.369 646.92 130.739 645.414 131.39C643.531 132.296 642.098 133.457 641.252 134.759V195.112H626.953V123.644H639.08C639.519 125.411 639.731 127.192 639.713 128.975C641.266 126.995 643.694 125.265 646.772 123.946C649.614 122.806 653.041 122.207 656.545 122.236C659.848 122.126 663.105 122.704 665.682 123.857C668.259 125.011 669.97 126.656 670.482 128.472C672.164 126.633 674.654 125.059 677.722 123.896C680.702 122.804 684.197 122.227 687.767 122.236C690.081 122.132 692.402 122.376 694.488 122.943C696.574 123.509 698.347 124.377 699.622 125.455C702.591 128.537 703.91 132.028 703.423 135.514V195.263H689.124Z" fill="white"/>
<path d="M748.818 166.193H762.392V181.935C762.392 191.541 754.7 196.369 739.316 196.369C723.931 196.369 716.963 191.34 716.963 181.935V137.173C716.484 133.236 718.536 129.332 722.755 126.158C724.841 124.894 727.414 123.908 730.281 123.272C733.148 122.636 736.236 122.368 739.316 122.487C754.7 122.487 762.392 127.516 762.392 137.173V160.208H730.356V181.834C730.356 186.059 733.373 188.171 739.406 188.171C745.439 188.171 748.456 186.059 748.456 181.834L748.818 166.193ZM748.818 137.273C748.818 133.049 745.65 130.886 739.768 130.886C733.886 130.886 730.718 133.049 730.718 137.273V154.524H748.818V137.273Z" fill="white"/>
<path d="M776.52 195.263V100.056H790.908V195.263H776.52Z" fill="white"/>
<path d="M838.138 195.263C837.512 193.849 837.238 192.393 837.323 190.938C835.969 192.561 833.793 193.93 831.061 194.877C828.328 195.824 825.158 196.308 821.939 196.269C819.454 196.371 816.957 196.188 814.606 195.729C812.254 195.27 810.099 194.547 808.274 193.603C806.462 192.416 805.096 191.038 804.257 189.553C803.418 188.067 803.122 186.503 803.387 184.953V174.441C803.205 171.456 804.097 168.481 806.012 165.69C807.607 163.449 810.009 161.412 813.07 159.705C816.173 158.056 819.714 156.682 823.568 155.631C827.55 154.525 831.894 153.418 836.509 152.312V136.72C836.667 135.103 835.975 133.496 834.518 132.093C832.481 131.054 829.817 130.478 827.052 130.478C824.287 130.478 821.623 131.054 819.586 132.093C818.242 133.517 817.617 135.116 817.776 136.72V151.809H805.016V136.72C804.538 132.962 806.426 129.229 810.355 126.159C812.56 124.891 815.251 123.916 818.229 123.306C821.206 122.696 824.392 122.468 827.55 122.638C842.663 122.638 850.174 127.315 850.174 136.72V187.015C850.174 188.725 850.174 190.284 850.174 192.044C850.193 193.215 850.466 194.38 850.988 195.515L838.138 195.263ZM836.509 158.699C832.931 159.375 829.524 160.305 826.373 161.465C824.015 162.356 822.038 163.523 820.582 164.885C819.198 166.234 818.307 167.721 817.957 169.261C817.492 171.161 817.28 173.077 817.324 174.994V182.639C817.324 186.562 820.582 188.524 827.097 188.524C829.159 188.543 831.17 188.17 832.799 187.467C834.799 186.622 836.129 185.378 836.509 183.997V158.699Z" fill="white"/>
<path d="M899.139 195.263V136.016C899.39 134.465 898.723 132.911 897.238 131.591C896.434 131.1 895.434 130.721 894.318 130.485C893.201 130.249 892.001 130.163 890.813 130.233C888.596 130.256 886.433 130.621 884.569 131.289C882.333 132.08 880.643 133.267 879.772 134.659V195.012H865.293V123.644H877.419C877.817 125.446 878.028 127.26 878.053 129.076C879.814 127.134 882.467 125.485 885.745 124.298C888.914 123.092 892.675 122.46 896.514 122.487C898.953 122.378 901.402 122.606 903.644 123.15C905.886 123.694 907.851 124.537 909.365 125.606C912.519 128.653 913.939 132.16 913.437 135.664V195.263H899.139Z" fill="white"/>
<path d="M963.656 195.263C963.656 194.408 963.656 193.553 963.656 192.648C963.656 191.743 963.656 190.837 963.656 189.932C962.289 191.736 960.03 193.288 957.141 194.408C953.738 195.6 949.756 196.18 945.738 196.068C933.612 196.068 927.639 191.592 927.639 182.639V135.664C927.109 132.126 928.7 128.589 932.164 125.606C933.976 124.514 936.217 123.669 938.712 123.136C941.208 122.604 943.891 122.399 946.552 122.538C949.715 122.51 952.835 122.944 955.602 123.795C958.278 124.592 960.55 125.751 962.208 127.165V100.056H976.326V195.263H963.656ZM961.575 135.312C960.872 133.957 959.4 132.764 957.377 131.912C955.355 131.06 952.891 130.595 950.353 130.585C949.107 130.527 947.852 130.613 946.668 130.838C945.484 131.063 944.397 131.422 943.476 131.892C941.827 133.232 941.089 134.855 941.394 136.469V181.734C941.053 183.382 941.792 185.042 943.476 186.411C944.369 186.907 945.45 187.286 946.639 187.521C947.829 187.756 949.097 187.841 950.353 187.769C952.958 187.733 955.469 187.221 957.498 186.312C959.526 185.402 960.959 184.147 961.575 182.74V135.312Z" fill="white"/>
<path d="M486.305 256.195C486.305 245.398 495.354 240 513.454 240C531.553 240 540.603 245.398 540.603 256.195V321.074C540.603 331.938 531.553 337.37 513.454 337.37C495.354 337.37 486.305 331.972 486.305 321.175V256.195ZM524.404 256.195C524.404 251.165 520.693 248.902 513.182 248.902C505.671 248.902 502.142 251.316 502.142 256.195V321.074C502.142 326.104 505.852 328.619 513.182 328.619C520.512 328.619 524.404 326.104 524.404 321.074V256.195Z" fill="white"/>
<path d="M554.789 352.458V264.644H566.825C567.267 266.444 567.479 268.259 567.459 270.075C568.772 268.241 571.001 266.653 573.884 265.499C577.258 264.365 581.168 263.821 585.105 263.94C587.676 263.852 590.248 264.098 592.619 264.656C594.99 265.215 597.095 266.071 598.77 267.158C602.291 270.131 603.945 273.668 603.476 277.217V324.041C604.046 327.575 602.486 331.113 599.042 334.1C597.175 335.126 594.929 335.913 592.46 336.408C589.991 336.903 587.358 337.094 584.743 336.967C581.596 336.977 578.49 336.563 575.694 335.76C573.146 335.009 570.97 333.921 569.359 332.591V352.458H554.789ZM589.268 278.575C589.565 276.907 588.796 275.233 587.096 273.848C586.164 273.371 585.062 273.008 583.862 272.783C582.662 272.557 581.389 272.475 580.128 272.54C577.794 272.546 575.52 272.95 573.612 273.697C571.445 274.538 569.851 275.761 569.087 277.167V324.846C569.899 326.239 571.483 327.454 573.612 328.316C575.52 329.063 577.794 329.467 580.128 329.473C581.396 329.532 582.672 329.441 583.873 329.207C585.073 328.973 586.172 328.601 587.096 328.115C588.766 326.836 589.538 325.262 589.268 323.689V278.575Z" fill="white"/>
<path d="M647.544 336.715C646.584 336.921 645.581 337.056 644.558 337.118H640.938C637.734 337.253 634.517 336.968 631.546 336.287C628.576 335.606 625.934 334.547 623.834 333.195C619.809 330.03 617.831 326.201 618.223 322.331V271.685H612.16V264.644H618.223V241.81H632.612V264.493H647.182V271.534H632.612V322.281C632.23 324.461 633.221 326.648 635.418 328.467C636.615 329.104 638.039 329.594 639.597 329.905C641.156 330.217 642.815 330.344 644.467 330.278H645.825C646.271 330.336 646.736 330.336 647.182 330.278L647.544 336.715Z" fill="white"/>
<path d="M658.219 255.491V241.056H672.608V255.491H658.219ZM658.219 336.263V264.644H672.608V336.263H658.219Z" fill="white"/>
<path d="M720.039 307.193H733.342V323.136C733.717 326.872 731.768 330.566 727.822 333.598C725.675 334.956 722.984 336.014 719.966 336.686C716.947 337.359 713.686 337.628 710.446 337.47C707.08 337.644 703.687 337.375 700.543 336.684C697.399 335.994 694.591 334.902 692.347 333.497C688.284 330.433 686.239 326.687 686.555 322.885V278.274C686.27 274.459 688.31 270.702 692.347 267.611C694.545 266.166 697.338 265.036 700.488 264.318C703.639 263.6 707.055 263.315 710.446 263.487C713.685 263.331 716.943 263.615 719.939 264.317C722.935 265.018 725.579 266.114 727.641 267.511C731.381 270.665 733.22 274.4 732.889 278.173V293.664H720.039V278.073C720.039 273.798 716.781 271.685 710.446 271.685C709.087 271.635 707.727 271.769 706.481 272.076C705.236 272.383 704.143 272.853 703.297 273.446C701.542 274.822 700.681 276.489 700.854 278.173V322.684C700.854 327.009 704.021 329.172 710.446 329.172C716.872 329.172 720.039 327.059 720.039 322.835V307.193Z" fill="white"/>
<path d="M778.982 336.263C778.274 334.857 777.969 333.397 778.077 331.938C776.732 333.565 774.558 334.938 771.823 335.886C769.089 336.833 765.914 337.314 762.692 337.269C760.222 337.364 757.743 337.177 755.408 336.719C753.073 336.26 750.932 335.54 749.118 334.603C747.306 333.416 745.94 332.038 745.101 330.553C744.261 329.067 743.966 327.503 744.231 325.953V315.441C744.069 312.461 744.929 309.491 746.765 306.69C748.36 304.449 750.762 302.412 753.824 300.705C756.943 299.044 760.517 297.669 764.412 296.631C768.394 295.525 772.737 294.418 777.262 293.312V277.721C777.464 276.101 776.77 274.487 775.271 273.093C774.406 272.495 773.275 272.032 771.99 271.749C770.704 271.467 769.309 271.376 767.941 271.484C766.545 271.368 765.12 271.455 763.803 271.737C762.486 272.019 761.324 272.487 760.43 273.093C759.009 274.502 758.349 276.109 758.53 277.721V292.809H745.86V277.721C745.382 273.962 747.27 270.229 751.199 267.159C753.39 265.895 756.066 264.922 759.027 264.312C761.989 263.703 765.159 263.472 768.303 263.638C783.416 263.638 791.018 268.316 791.018 277.721V328.015C791.018 329.725 791.018 331.284 791.018 333.044C791.105 334.215 791.409 335.378 791.923 336.515L778.982 336.263ZM777.262 299.699C773.712 300.375 770.335 301.305 767.217 302.465C764.834 303.355 762.827 304.522 761.335 305.885C759.983 307.238 759.122 308.724 758.801 310.261C758.336 312.161 758.124 314.077 758.167 315.995V323.639C758.167 327.562 761.425 329.524 767.941 329.524C770.003 329.543 772.014 329.17 773.642 328.468C775.609 327.613 776.905 326.37 777.262 324.997V299.699Z" fill="white"/>
<path d="M806.215 336.263V241.056H820.604V336.263H806.215Z" fill="white"/>
<path d="M881.185 333.207V246.902H862V238H916.298V246.902H897.113V333.207H881.185Z" fill="white"/>
<path d="M950.227 304.137H963.801V319.879C963.801 329.485 956.109 334.313 940.724 334.313C925.34 334.313 918.553 329.284 918.553 319.778V275.117C918.073 271.18 920.126 267.276 924.344 264.102C926.431 262.838 929.004 261.852 931.871 261.216C934.738 260.58 937.826 260.312 940.905 260.431C956.29 260.431 963.982 265.46 963.982 275.117V298.152H931.946V319.778C931.946 324.003 934.963 326.115 940.996 326.115C947.029 326.115 950.196 324.003 950.498 319.778L950.227 304.137ZM950.227 275.217C950.227 270.993 947.059 268.83 940.724 268.83C934.39 268.83 931.675 270.993 931.675 275.217V292.468H949.774L950.227 275.217Z" fill="white"/>
<path d="M1009.77 304.137H1023.07V320.08C1023.45 323.816 1021.5 327.51 1017.55 330.541C1015.38 331.905 1012.65 332.96 1009.6 333.616C1006.54 334.273 1003.25 334.512 999.993 334.313C996.626 334.495 993.229 334.23 990.082 333.539C986.935 332.848 984.129 331.752 981.894 330.34C977.758 327.294 975.676 323.539 976.012 319.728V275.217C975.708 271.393 977.786 267.627 981.894 264.555C984.082 263.103 986.873 261.968 990.026 261.25C993.18 260.531 996.6 260.25 999.993 260.431C1003.23 260.27 1006.49 260.553 1009.49 261.254C1012.49 261.955 1015.13 263.054 1017.19 264.454C1020.95 267.604 1022.82 271.338 1022.53 275.117V290.607H1009.59V275.016C1009.59 270.741 1006.42 268.629 999.993 268.629C998.635 268.583 997.277 268.719 996.033 269.025C994.789 269.332 993.695 269.799 992.844 270.389C991.121 271.772 990.292 273.438 990.491 275.117V319.627C990.491 323.953 993.658 326.115 999.993 326.115C1006.42 326.115 1009.59 324.003 1009.59 319.778L1009.77 304.137Z" fill="white"/>
<path d="M1070.56 333.207V273.96C1070.82 272.409 1070.15 270.855 1068.66 269.535C1067.86 269.047 1066.85 268.67 1065.74 268.434C1064.62 268.199 1063.43 268.111 1062.24 268.177C1060.02 268.2 1057.86 268.565 1055.99 269.233C1053.76 270.024 1052.07 271.211 1051.2 272.603V332.956H1036.81V238H1051.2V265.612C1053.11 264.099 1055.57 262.83 1058.44 261.89C1061.38 260.897 1064.77 260.391 1068.21 260.431C1070.64 260.317 1073.08 260.543 1075.31 261.087C1077.53 261.632 1079.48 262.479 1080.97 263.55C1084.01 266.619 1085.36 270.116 1084.86 273.608V333.207H1070.56Z" fill="white"/>
<path d="M1133.38 333.208V273.961C1133.61 272.417 1132.98 270.872 1131.57 269.535C1130.75 269.043 1129.73 268.664 1128.6 268.429C1127.47 268.193 1126.26 268.107 1125.06 268.177C1122.84 268.2 1120.68 268.566 1118.81 269.233C1116.6 270.038 1114.91 271.221 1114.01 272.603V332.956H1099.54V261.588H1111.57C1112.01 263.388 1112.22 265.204 1112.2 267.02C1113.93 264.997 1116.58 263.262 1119.9 261.991C1123.09 260.778 1126.89 260.146 1130.76 260.18C1133.18 260.075 1135.61 260.305 1137.84 260.849C1140.07 261.393 1142.02 262.234 1143.52 263.298C1146.67 266.346 1148.09 269.853 1147.59 273.357V333.208H1133.38Z" fill="white"/>
<path d="M1161.28 274.765C1160.84 270.932 1162.93 267.141 1167.16 264.103C1172.1 261.711 1178.44 260.394 1184.99 260.394C1191.54 260.394 1197.87 261.711 1202.82 264.103C1207.12 267.123 1209.24 270.922 1208.79 274.765V320.03C1209.3 323.861 1207.17 327.656 1202.82 330.642C1197.83 332.976 1191.51 334.255 1184.99 334.255C1178.47 334.255 1172.15 332.976 1167.16 330.642C1162.91 327.63 1160.81 323.85 1161.28 320.03V274.765ZM1194.85 274.765C1195.04 273.131 1194.35 271.502 1192.86 270.088C1191.94 269.454 1190.74 268.964 1189.38 268.664C1188.01 268.364 1186.53 268.266 1185.08 268.378C1183.62 268.285 1182.13 268.392 1180.76 268.69C1179.39 268.988 1178.17 269.468 1177.21 270.088C1175.8 271.517 1175.14 273.138 1175.31 274.765V319.728C1175.11 321.324 1175.77 322.917 1177.21 324.305C1178.2 324.897 1179.43 325.348 1180.8 325.62C1182.17 325.891 1183.64 325.975 1185.08 325.864C1186.51 325.96 1187.97 325.865 1189.32 325.585C1190.68 325.305 1191.89 324.849 1192.86 324.255C1194.37 322.827 1195.06 321.178 1194.85 319.527V274.765Z" fill="white"/>
<path d="M1222.89 333.207V238H1237.28V333.207H1222.89Z" fill="white"/>
<path d="M1251.38 274.765C1250.95 270.932 1253.04 267.141 1257.27 264.103C1262.21 261.711 1268.54 260.394 1275.09 260.394C1281.65 260.394 1287.98 261.711 1292.92 264.103C1297.22 267.123 1299.35 270.922 1298.89 274.765V320.03C1299.41 323.861 1297.27 327.656 1292.92 330.642C1287.93 332.976 1281.62 334.255 1275.09 334.255C1268.57 334.255 1262.26 332.976 1257.27 330.642C1253.01 327.63 1250.92 323.85 1251.38 320.03V274.765ZM1284.96 274.765C1285.1 273.133 1284.41 271.512 1282.97 270.088C1280.84 268.988 1278.04 268.377 1275.14 268.377C1272.24 268.377 1269.44 268.988 1267.31 270.088C1265.87 271.512 1265.18 273.133 1265.32 274.765V319.728C1265.15 321.33 1265.84 322.924 1267.31 324.305C1268.3 324.897 1269.53 325.348 1270.91 325.62C1272.28 325.891 1273.74 325.975 1275.18 325.864C1276.62 325.96 1278.07 325.865 1279.43 325.585C1280.78 325.305 1282 324.849 1282.97 324.255C1284.43 322.817 1285.12 321.176 1284.96 319.527V274.765Z" fill="white"/>
<path d="M1345.32 325.311C1343.74 326.747 1341.45 327.9 1338.72 328.63C1335.71 329.458 1332.39 329.872 1329.03 329.837C1326.39 329.977 1323.73 329.778 1321.25 329.255C1318.77 328.732 1316.54 327.898 1314.74 326.819C1311.27 323.837 1309.71 320.295 1310.3 316.761V274.312C1309.87 270.765 1311.52 267.235 1315.01 264.253C1316.69 263.172 1318.8 262.32 1321.17 261.762C1323.54 261.204 1326.1 260.955 1328.67 261.034C1332.49 260.935 1336.28 261.478 1339.53 262.594C1342.58 263.728 1344.99 265.313 1346.5 267.17C1346.5 266.265 1346.5 265.309 1346.5 264.404C1346.5 263.499 1346.5 262.594 1346.5 261.739H1358.54V337.18C1359 340.813 1356.96 344.408 1352.84 347.239C1350.44 348.506 1347.59 349.472 1344.47 350.071C1341.34 350.67 1338.02 350.888 1334.74 350.709C1330.9 350.764 1327.08 350.458 1323.42 349.804C1320.64 349.272 1318.15 348.355 1316.18 347.138C1314.32 345.913 1312.99 344.468 1312.29 342.914C1311.53 341.033 1311.16 339.108 1311.21 337.18V334.313H1324.06V337.532C1324.06 341.706 1327.59 343.769 1334.46 343.769C1341.34 343.769 1344.51 341.706 1344.51 337.532L1345.32 325.311ZM1345.32 274.061C1344.35 272.66 1342.69 271.44 1340.53 270.54C1338.51 269.753 1336.11 269.332 1333.65 269.333C1332.31 269.258 1330.96 269.349 1329.69 269.602C1328.42 269.854 1327.27 270.261 1326.32 270.792C1325.01 271.984 1324.38 273.369 1324.51 274.765V316.509C1324.26 318.051 1324.97 319.593 1326.5 320.885C1327.45 321.375 1328.59 321.745 1329.82 321.971C1331.05 322.197 1332.36 322.272 1333.65 322.192C1336.1 322.189 1338.49 321.787 1340.53 321.036C1342.72 320.177 1344.4 318.966 1345.32 317.565V274.061Z" fill="white"/>
<path d="M1369.27 402.5C1369.27 402.5 1375.01 402.481 1378 402.5C1379.61 402.568 1384.09 402.104 1385.5 401.5C1386.91 400.896 1389.23 398.089 1390 397C1391.91 394.094 1393.94 389.673 1394.5 386.443L1398 367L1367 260H1384C1384 260 1390.36 287.37 1391.27 293.141L1404.5 345C1404.5 345 1406.59 334.271 1407.5 328.5C1408.41 322.729 1409.59 316.383 1410.5 310L1413 292C1414.02 285.792 1414.5 275.652 1414.5 275.652L1415.76 260H1433L1408.51 386.443C1407.76 390.367 1406.7 394.251 1405.33 398.073C1404.34 401.205 1402.61 404.17 1400.23 406.818C1398.09 409.139 1395.2 410.981 1391.84 412.152C1387.71 413.47 1383.26 414.096 1378.79 413.988C1375.5 414 1369.27 413.988 1369.27 413.988V402.5Z" fill="white"/>
<path d="M843.49 456.759L827.558 419.231L846.103 409.355C849.597 407.494 859.127 404.905 865.154 405.358C865.579 404.761 866.118 404.243 866.788 403.887C868.988 402.716 871.562 403.627 872.535 405.92L872.651 406.192L885.247 399.484L888 404.5L898 403.5L903.502 414.5L892.002 415.5L894.235 420.655L881.544 427.414C881.95 429.491 880.952 431.74 879.044 432.757C878.459 433.068 877.85 433.224 877.25 433.253C873.7 438.465 865.329 445.133 862.035 446.888L843.49 456.759ZM826.781 425.651L838.554 453.382L816.184 465.292L804.413 437.561L826.781 425.651ZM817.543 443.368L815.167 437.775L811.144 439.917L813.52 445.51L817.543 443.368ZM820.718 451.036L816.694 453.178L819.068 458.772L823.092 456.629L820.718 451.036Z" fill="white"/>
<path d="M917.535 403H1376V414H917.535C901.781 414 889 417.5 889 408.5C889 408.5 883.5 402 917.535 403Z" fill="white"/>
</svg>
