<svg width="595" height="222" viewBox="0 0 595 222" fill="none" xmlns="http://www.w3.org/2000/svg">
<path d="M35.783 202.313V84.1938C36.0363 81.0776 35.3319 77.9581 33.7719 75.2874C32.8973 74.3274 31.8235 73.5892 30.6329 73.1295C29.4424 72.6698 28.1666 72.5007 26.9037 72.6353C24.5483 72.6909 22.2523 73.4163 20.2631 74.7332C17.9018 76.3107 16.1124 78.6649 15.1784 81.423V202.313H0V12.3091H15.1784V67.7269C17.1729 64.691 19.7589 62.1282 22.7676 60.2059C25.9307 58.2741 29.5376 57.2753 33.2027 57.3162C35.7764 57.094 38.3624 57.5503 40.723 58.6432C43.0835 59.7361 45.1427 61.4304 46.7114 63.5705C49.9815 69.6951 51.4467 76.69 50.9234 83.6793V202.313H35.783Z" fill="#D52B1E"/>
<path d="M70.3917 85.5799C69.9008 77.9448 72.1004 70.3855 76.5769 64.3233C79.0348 61.7268 82.0051 59.7196 85.2815 58.4413C88.5579 57.163 92.0619 56.6443 95.5499 56.921C99.0372 56.6523 102.539 57.1748 105.814 58.4526C109.089 59.7304 112.06 61.7333 114.523 64.3233C119.072 70.3514 121.317 77.9253 120.822 85.5799V175.95C121.384 183.588 119.161 191.166 114.599 197.168C112.123 199.732 109.147 201.71 105.873 202.967C102.599 204.224 99.1042 204.73 95.6258 204.451C92.1467 204.738 88.6494 204.235 85.3743 202.978C82.0991 201.721 79.1238 199.738 76.6528 197.168C72.1518 191.164 69.9476 183.632 70.4676 176.03L70.3917 85.5799ZM106.061 86.055C106.233 82.7922 105.495 79.5473 103.936 76.7131C101.674 74.5461 98.7155 73.3437 95.6448 73.3437C92.574 73.3437 89.6151 74.5461 87.3536 76.7131C85.7945 79.5473 85.0564 82.7922 85.2286 86.055V175.95C84.993 179.219 85.7354 182.483 87.3536 185.292C88.3917 186.466 89.6849 187.363 91.1244 187.907C92.5639 188.452 94.1077 188.627 95.6258 188.419C97.1598 188.63 98.7199 188.443 100.169 187.878C101.618 187.312 102.911 186.383 103.936 185.174C105.522 182.293 106.261 178.989 106.061 175.673V86.055Z" fill="#D52B1E"/>
<path d="M142.871 59.2567V13.9329H158.049V66.936H173.569V81.0279H158.277V174.803C157.865 179.158 158.925 183.527 161.275 187.153C162.607 188.48 164.199 189.49 165.942 190.112C167.685 190.734 169.536 190.953 171.368 190.755H172.81C173.3 190.757 173.787 190.676 174.252 190.518V203.224C173.211 203.621 172.128 203.887 171.027 204.016C169.773 204.238 168.504 204.357 167.232 204.372C163.82 204.632 160.397 204.05 157.239 202.675C154.082 201.3 151.279 199.169 149.056 196.455C144.753 190.13 142.639 182.467 143.061 174.724V73.3486" fill="#D52B1E"/>
<path d="M55.8164 8.62809L60.7114 20.5033C71.2025 15.5208 82.5957 12.9426 94.1228 12.9426C105.65 12.9426 117.043 15.5208 127.534 20.5033L132.467 8.62809C120.426 2.94148 107.36 0 94.1418 0C80.9238 0 67.8579 2.94148 55.8164 8.62809Z" fill="white"/>
<path d="M65.8008 32.1803L70.6958 44.0556C78.0863 40.4582 86.1427 38.594 94.2982 38.594C102.454 38.594 110.51 40.4582 117.901 44.0556L122.796 32.1803C113.866 27.9108 104.159 25.7007 94.3361 25.7007C84.5134 25.7007 74.8062 27.9108 65.8767 32.1803H65.8008Z" fill="white"/>
<path d="M240.181 96.7638V62.0089H230.922V96.7242H224.281V21.8311H230.922V55.2401H240.181V21.8311H246.783V96.7638H240.181Z" fill="#A0A8B2"/>
<path d="M252.739 50.7667C252.545 47.7546 253.408 44.7717 255.167 42.3749C257.242 40.4819 259.905 39.4385 262.662 39.4385C265.418 39.4385 268.081 40.4819 270.156 42.3749C271.929 44.7662 272.806 47.7496 272.623 50.7667V86.3925C272.818 89.3988 271.939 92.3742 270.156 94.7447C268.057 96.5846 265.403 97.5933 262.662 97.5933C259.92 97.5933 257.266 96.5846 255.167 94.7447C253.398 92.3686 252.533 89.3938 252.739 86.3925V50.7667ZM266.779 50.9647C266.857 49.6783 266.567 48.3968 265.944 47.2833C265.059 46.4207 263.892 45.9409 262.681 45.9409C261.469 45.9409 260.303 46.4207 259.417 47.2833C258.795 48.3968 258.504 49.6783 258.583 50.9647V86.3529C258.493 87.6151 258.785 88.8748 259.417 89.955C259.829 90.4154 260.339 90.7669 260.907 90.9803C261.474 91.1937 262.082 91.2629 262.681 91.1821C263.282 91.2581 263.892 91.1826 264.46 90.9623C265.028 90.7419 265.537 90.383 265.944 89.9154C266.576 88.7915 266.867 87.4943 266.779 86.1945V50.9647Z" fill="#A0A8B2"/>
<path d="M304.661 96.764V49.8568C304.661 47.0859 303.636 45.6609 301.625 45.6609C300.8 45.6723 300 45.9641 299.348 46.4922C298.546 47.1946 297.943 48.1114 297.603 49.1443V96.6452H291.569V49.8568C291.569 47.0859 290.545 45.6609 288.534 45.6609C287.734 45.6891 286.964 45.9801 286.333 46.4922C285.543 47.206 284.942 48.1191 284.587 49.1443V96.6452H278.592V40.3962H283.677C283.861 41.7865 283.949 43.1887 283.942 44.5921C284.593 43.0337 285.612 41.6721 286.902 40.6337C288.094 39.7369 289.531 39.2649 291 39.2879C292.385 39.2015 293.751 39.6566 294.831 40.5641C295.912 41.4717 296.629 42.7666 296.844 44.1963C297.549 42.7484 298.593 41.5095 299.879 40.5941C301.129 39.735 302.595 39.2805 304.091 39.2879C305.062 39.2062 306.035 39.3983 306.91 39.8441C307.784 40.2898 308.528 40.9727 309.062 41.8213C310.307 44.2473 310.86 46.9945 310.656 49.7381V96.764H304.661Z" fill="#A0A8B2"/>
<path d="M329.683 73.8838H335.374V86.2736C335.374 93.8342 332.149 97.6343 325.698 97.6343C319.247 97.6343 316.326 93.6759 316.326 86.2736V51.0438C316.125 47.9452 316.985 44.8729 318.754 42.3749C319.629 41.3799 320.708 40.6034 321.91 40.1032C323.112 39.6029 324.407 39.3917 325.698 39.4852C332.149 39.4852 335.374 43.4436 335.374 51.0438V69.1733H321.942V86.1945C321.942 89.5195 323.206 91.1821 325.736 91.1821C328.266 91.1821 329.531 89.5195 329.531 86.1945L329.683 73.8838ZM329.683 51.1229C329.683 47.7979 328.354 46.0958 325.888 46.0958C323.421 46.0958 322.093 47.7979 322.093 51.1229V64.7003H329.683V51.1229Z" fill="#A0A8B2"/>
<path d="M341.309 96.7638V21.8311H347.342V96.7638H341.309Z" fill="#A0A8B2"/>
<path d="M367.142 96.7637C366.88 95.6505 366.765 94.5051 366.801 93.3594C366.233 94.6373 365.32 95.7148 364.174 96.46C363.029 97.2052 361.7 97.5859 360.35 97.5554C359.308 97.636 358.261 97.4913 357.275 97.1303C356.289 96.7693 355.385 96.1997 354.62 95.4574C353.86 94.5226 353.287 93.4386 352.935 92.2693C352.584 91.0999 352.46 89.869 352.571 88.6489V80.3758C352.494 78.0264 352.868 75.6848 353.671 73.4882C354.34 71.7242 355.347 70.1213 356.631 68.7777C357.932 67.48 359.417 66.3986 361.033 65.5714C362.702 64.7005 364.524 63.8297 366.459 62.9588V50.6878C366.525 49.4151 366.235 48.1498 365.624 47.046C364.77 46.2282 363.653 45.7744 362.494 45.7744C361.334 45.7744 360.217 46.2282 359.363 47.046C358.8 48.1662 358.537 49.4246 358.604 50.6878V62.563H353.254V50.6878C353.053 47.7299 353.845 44.7913 355.493 42.3751C356.417 41.3772 357.546 40.6097 358.794 40.1299C360.042 39.6502 361.378 39.4705 362.702 39.6042C369.039 39.6042 372.189 43.2855 372.189 50.6878V90.2719C372.189 91.6177 372.189 92.8448 372.189 94.2303C372.197 95.1517 372.311 96.0688 372.53 96.9616L367.142 96.7637ZM366.459 67.986C364.959 68.5182 363.53 69.2499 362.209 70.1631C361.22 70.8639 360.391 71.7828 359.781 72.8548C359.2 73.9163 358.827 75.0865 358.68 76.2987C358.485 77.794 358.396 79.3023 358.414 80.8113V86.828C358.414 89.9156 359.781 91.4594 362.513 91.4594C363.377 91.4745 364.22 91.1812 364.903 90.6281C365.742 89.9628 366.3 88.9834 366.459 87.8968V67.986Z" fill="#A0A8B2"/>
<path d="M392.723 96.7637V50.1337C392.829 48.9129 392.549 47.6897 391.926 46.6503C391.589 46.2639 391.17 45.9657 390.702 45.78C390.233 45.5944 389.73 45.5263 389.232 45.5815C388.302 45.5996 387.396 45.8875 386.614 46.4128C385.676 47.0352 384.967 47.9697 384.603 49.0649V96.5658H378.531V40.396H383.616C383.783 41.8146 383.871 43.2419 383.882 44.671C384.62 43.1426 385.733 41.8452 387.107 40.9106C388.436 39.9618 390.013 39.4641 391.623 39.4855C392.645 39.3997 393.672 39.5788 394.612 40.007C395.552 40.4351 396.376 41.0991 397.011 41.9397C398.334 44.3382 398.929 47.0983 398.719 49.8566V96.7637H392.723Z" fill="#A0A8B2"/>
<path d="M419.771 96.7638C419.771 96.0909 419.771 95.4179 419.771 94.7054C419.771 93.9929 419.771 93.2804 419.771 92.5679C419.198 93.9879 418.251 95.2094 417.039 96.0909C415.612 97.0291 413.943 97.4853 412.258 97.3971C407.173 97.3971 404.669 93.8741 404.669 86.8282V49.8566C404.447 47.0716 405.114 44.2881 406.566 41.9398C407.326 41.0803 408.266 40.4153 409.312 39.9965C410.359 39.5777 411.483 39.4164 412.599 39.5252C413.925 39.5035 415.234 39.8447 416.394 40.5148C417.516 41.1424 418.469 42.0545 419.164 43.1669V21.8311H425.084V96.7638H419.771ZM418.898 49.5795C418.604 48.5129 417.986 47.5742 417.138 46.9036C416.29 46.233 415.257 45.8664 414.193 45.8586C413.67 45.8129 413.144 45.8807 412.648 46.0579C412.151 46.235 411.696 46.5176 411.309 46.8878C410.618 47.9424 410.308 49.2192 410.437 50.49V86.1156C410.293 87.4123 410.603 88.7194 411.309 89.797C411.684 90.1872 412.137 90.4856 412.636 90.6704C413.135 90.8553 413.667 90.922 414.193 90.8658C415.285 90.8371 416.338 90.4339 417.189 89.7184C418.039 89.0028 418.64 88.0149 418.898 86.9073V49.5795Z" fill="#A0A8B2"/>
<path d="M454.426 33.7461C454.426 25.2487 458.22 21 465.81 21C473.399 21 477.193 25.2487 477.193 33.7461V84.8096C477.193 93.3598 473.399 97.6348 465.81 97.6348C458.22 97.6348 454.426 93.3861 454.426 84.8888V33.7461ZM470.401 33.7461C470.401 29.7877 468.845 28.0064 465.696 28.0064C462.546 28.0064 461.066 29.9064 461.066 33.7461V84.8096C461.066 88.768 462.622 90.7472 465.696 90.7472C468.769 90.7472 470.401 88.768 470.401 84.8096V33.7461Z" fill="#A0A8B2"/>
<path d="M483.145 109.51V40.3959H488.191C488.377 41.8125 488.465 43.2411 488.457 44.6709C489.008 43.2269 489.942 41.9772 491.151 41.0688C492.566 40.1762 494.205 39.7487 495.856 39.8417C496.934 39.773 498.013 39.966 499.007 40.4056C500.001 40.8452 500.884 41.5193 501.586 42.3751C503.062 44.715 503.756 47.4982 503.559 50.2919V87.1447C503.798 89.9257 503.144 92.7107 501.7 95.0615C500.917 95.8686 499.976 96.4885 498.94 96.8781C497.905 97.2677 496.801 97.4177 495.705 97.3178C494.385 97.326 493.083 97 491.91 96.3678C490.842 95.7767 489.929 94.9202 489.254 93.874V109.51H483.145ZM497.602 51.3607C497.727 50.0473 497.404 48.7301 496.691 47.6397C496.3 47.2644 495.838 46.9788 495.335 46.8015C494.832 46.6243 494.298 46.5592 493.769 46.6106C492.791 46.6152 491.837 46.933 491.037 47.521C490.129 48.1832 489.46 49.1454 489.14 50.2523V87.7781C489.48 88.8745 490.144 89.8305 491.037 90.5093C491.837 91.0973 492.791 91.4151 493.769 91.4198C494.301 91.4659 494.836 91.3946 495.34 91.2104C495.843 91.0262 496.304 90.7334 496.691 90.351C497.391 89.3443 497.715 88.1057 497.602 86.8676V51.3607Z" fill="#A0A8B2"/>
<path d="M522.04 97.1198C521.638 97.2816 521.217 97.388 520.788 97.4364H519.27C517.926 97.5428 516.578 97.3189 515.332 96.7827C514.086 96.2465 512.979 95.4128 512.098 94.3489C510.41 91.858 509.581 88.8442 509.745 85.7987V45.9375H507.203V40.3958H509.745V22.4246H515.779V40.277H521.888V45.8188H515.779V85.7591C515.618 87.4752 516.034 89.1962 516.955 90.628C517.457 91.1289 518.054 91.5145 518.708 91.76C519.361 92.0054 520.057 92.1052 520.75 92.053H521.319C521.506 92.0986 521.701 92.0986 521.888 92.053L522.04 97.1198Z" fill="#A0A8B2"/>
<path d="M526.516 33.1917V21.8311H532.549V33.1917H526.516ZM526.516 96.7638V40.396H532.549V96.7638H526.516Z" fill="#A0A8B2"/>
<path d="M552.438 73.8842H558.016V86.4323C558.174 89.3727 557.356 92.28 555.701 94.6659C554.801 95.7346 553.673 96.5674 552.407 97.0969C551.142 97.6264 549.774 97.8377 548.416 97.7138C547.004 97.8505 545.582 97.6386 544.263 97.0953C542.945 96.5521 541.768 95.6927 540.827 94.5867C539.123 92.1754 538.266 89.2266 538.398 86.2344V51.1233C538.278 48.1205 539.134 45.1635 540.827 42.7315C541.748 41.5938 542.919 40.7047 544.24 40.1396C545.562 39.5746 546.994 39.3502 548.416 39.4856C549.774 39.3625 551.14 39.5865 552.396 40.1383C553.653 40.6901 554.761 41.553 555.626 42.6523C557.194 45.1352 557.965 48.0741 557.826 51.0442V63.2361H552.438V50.965C552.438 47.6003 551.072 45.9378 548.416 45.9378C547.846 45.8985 547.275 46.004 546.753 46.2453C546.231 46.4866 545.773 46.8565 545.418 47.3233C544.682 48.4066 544.321 49.7186 544.394 51.0442V86.0761C544.394 89.4803 545.722 91.1825 548.416 91.1825C551.11 91.1825 552.438 89.5199 552.438 86.1949V73.8842Z" fill="#A0A8B2"/>
<path d="M577.148 96.7638C576.851 95.6568 576.723 94.508 576.768 93.3595C576.205 94.6406 575.293 95.7209 574.146 96.4667C573 97.2126 571.668 97.5911 570.318 97.5555C569.282 97.6306 568.242 97.4831 567.263 97.1223C566.284 96.7614 565.386 96.1948 564.626 95.4575C563.866 94.5227 563.293 93.4387 562.941 92.2694C562.589 91.1001 562.465 89.8691 562.577 88.6491V80.376C562.509 78.0305 562.869 75.6931 563.639 73.4883C564.308 71.7244 565.315 70.1214 566.599 68.7778C567.907 67.4707 569.405 66.3885 571.039 65.5715C572.708 64.7007 574.53 63.8298 576.427 62.959V50.6879C576.512 49.4135 576.22 48.1426 575.592 47.0461C575.229 46.575 574.755 46.2104 574.216 45.9883C573.677 45.7662 573.092 45.6943 572.518 45.7794C571.933 45.6879 571.335 45.7564 570.783 45.9785C570.231 46.2006 569.744 46.5685 569.369 47.0461C568.773 48.1549 568.497 49.4193 568.572 50.6879V62.5631H563.26V50.6879C563.059 47.73 563.851 44.7914 565.499 42.3752C566.417 41.3804 567.539 40.6147 568.781 40.1349C570.023 39.6552 571.352 39.4738 572.67 39.6043C579.007 39.6043 582.195 43.2856 582.195 50.6879V90.272C582.195 91.6178 582.195 92.845 582.195 94.2304C582.231 95.152 582.359 96.0672 582.574 96.9617L577.148 96.7638ZM576.427 67.9861C574.938 68.5178 573.522 69.2496 572.215 70.1632C571.216 70.8635 570.374 71.7819 569.748 72.855C569.182 73.9193 568.821 75.0894 568.686 76.2988C568.491 77.7941 568.402 79.3024 568.42 80.8114V86.8282C568.42 89.9157 569.786 91.4595 572.518 91.4595C573.383 91.4746 574.226 91.1813 574.909 90.6283C575.734 89.9559 576.277 88.9774 576.427 87.8969V67.9861Z" fill="#A0A8B2"/>
<path d="M588.572 96.7638V21.8311H594.606V96.7638H588.572Z" fill="#A0A8B2"/>
<path d="M230.045 207.599V139.673H222V132.667H244.768V139.673H236.723V207.599H230.045Z" fill="#A0A8B2"/>
<path d="M259.001 184.719H264.693V197.109C264.693 204.67 261.468 208.47 255.017 208.47C248.566 208.47 245.72 204.511 245.72 197.03V161.879C245.519 158.781 246.38 155.708 248.149 153.21C249.024 152.215 250.102 151.439 251.304 150.939C252.507 150.438 253.801 150.227 255.093 150.321C261.544 150.321 264.769 154.279 264.769 161.879V180.009H251.336V197.03C251.336 200.355 252.601 202.018 255.131 202.018C257.66 202.018 258.988 200.355 259.115 197.03L259.001 184.719ZM259.001 161.958C259.001 158.633 257.673 156.931 255.017 156.931C252.361 156.931 251.222 158.633 251.222 161.958V175.536H258.811L259.001 161.958Z" fill="#A0A8B2"/>
<path d="M283.965 184.719H289.543V197.267C289.701 200.208 288.884 203.115 287.229 205.501C286.319 206.575 285.176 207.405 283.895 207.921C282.614 208.438 281.232 208.626 279.867 208.47C278.455 208.613 277.031 208.404 275.711 207.86C274.392 207.317 273.215 206.454 272.278 205.343C270.544 202.946 269.671 199.99 269.812 196.99V161.958C269.684 158.948 270.555 155.985 272.278 153.567C273.195 152.424 274.366 151.531 275.688 150.965C277.01 150.4 278.445 150.179 279.867 150.321C281.225 150.194 282.593 150.417 283.85 150.969C285.106 151.521 286.215 152.385 287.077 153.487C288.656 155.967 289.44 158.905 289.316 161.879V174.071H283.889V161.8C283.889 158.435 282.561 156.773 279.867 156.773C279.298 156.737 278.728 156.844 278.207 157.085C277.685 157.326 277.227 157.694 276.869 158.158C276.147 159.247 275.799 160.558 275.883 161.879V196.911C275.883 200.315 277.211 202.018 279.867 202.018C282.561 202.018 283.889 200.355 283.889 197.03L283.965 184.719Z" fill="#A0A8B2"/>
<path d="M309.457 207.599V160.969C309.562 159.749 309.282 158.525 308.66 157.486C308.321 157.102 307.901 156.806 307.433 156.62C306.966 156.435 306.463 156.365 305.966 156.417C305.036 156.435 304.129 156.723 303.347 157.248C302.41 157.871 301.701 158.805 301.336 159.901V207.402H295.303V132.667H301.336V154.398C302.137 153.208 303.172 152.209 304.372 151.469C305.605 150.688 307.027 150.29 308.47 150.321C309.487 150.231 310.51 150.409 311.445 150.838C312.379 151.266 313.196 151.933 313.82 152.775C315.095 155.191 315.662 157.944 315.452 160.692V207.599H309.457Z" fill="#A0A8B2"/>
<path d="M335.789 207.6V160.97C335.885 159.755 335.62 158.539 335.03 157.486C334.686 157.099 334.26 156.801 333.785 156.616C333.311 156.43 332.802 156.362 332.298 156.417C331.369 156.436 330.462 156.723 329.68 157.249C328.752 157.882 328.047 158.813 327.669 159.901V207.402H321.598V151.232H326.644C326.83 152.649 326.919 154.077 326.91 155.507C327.633 153.915 328.745 152.549 330.135 151.549C331.476 150.594 333.066 150.096 334.689 150.124C335.706 150.041 336.726 150.222 337.66 150.65C338.593 151.078 339.411 151.74 340.039 152.578C341.362 154.976 341.957 157.736 341.747 160.495V207.6H335.789Z" fill="#A0A8B2"/>
<path d="M347.494 161.603C347.31 158.585 348.187 155.602 349.96 153.211C352.032 151.328 354.688 150.292 357.435 150.292C360.183 150.292 362.838 151.328 364.911 153.211C366.713 155.588 367.606 158.578 367.415 161.603V197.228C367.63 200.243 366.734 203.23 364.911 205.58C362.818 207.417 360.171 208.424 357.435 208.424C354.7 208.424 352.053 207.417 349.96 205.58C348.177 203.21 347.298 200.235 347.494 197.228V161.603ZM361.572 161.603C361.65 160.316 361.359 159.035 360.737 157.921C360.35 157.422 359.846 157.036 359.275 156.801C358.703 156.565 358.082 156.487 357.473 156.575C356.86 156.502 356.238 156.587 355.663 156.821C355.088 157.056 354.576 157.433 354.172 157.921C353.581 159.046 353.305 160.322 353.375 161.603V196.991C353.294 198.247 353.571 199.501 354.172 200.593C354.587 201.059 355.104 201.414 355.679 201.628C356.253 201.841 356.869 201.907 357.473 201.82C358.075 201.896 358.685 201.82 359.253 201.6C359.82 201.38 360.329 201.021 360.737 200.553C361.369 199.429 361.66 198.132 361.572 196.832V161.603Z" fill="#A0A8B2"/>
<path d="M373.326 207.599V132.667H379.36V207.599H373.326Z" fill="#A0A8B2"/>
<path d="M385.271 161.603C385.087 158.585 385.964 155.602 387.737 153.211C389.81 151.328 392.465 150.292 395.213 150.292C397.961 150.292 400.616 151.328 402.688 153.211C404.491 155.588 405.383 158.578 405.193 161.603V197.228C405.407 200.243 404.512 203.23 402.688 205.58C400.595 207.417 397.948 208.424 395.213 208.424C392.478 208.424 389.83 207.417 387.737 205.58C385.954 203.21 385.075 200.235 385.271 197.228V161.603ZM399.349 161.603C399.408 160.318 399.118 159.042 398.514 157.921C397.622 157.056 396.45 156.575 395.232 156.575C394.014 156.575 392.841 157.056 391.949 157.921C391.345 159.042 391.056 160.318 391.115 161.603V196.991C391.042 198.251 391.333 199.506 391.949 200.593C392.365 201.059 392.881 201.414 393.456 201.628C394.031 201.841 394.646 201.907 395.251 201.82C395.852 201.896 396.462 201.82 397.03 201.6C397.598 201.38 398.107 201.021 398.514 200.553C399.127 199.422 399.417 198.13 399.349 196.832V161.603Z" fill="#A0A8B2"/>
<path d="M424.662 201.384C423.999 202.515 423.037 203.422 421.892 203.997C420.631 204.649 419.239 204.975 417.832 204.947C416.725 205.057 415.608 204.901 414.569 204.489C413.529 204.077 412.594 203.421 411.836 202.572C410.384 200.225 409.729 197.437 409.977 194.655V161.246C409.797 158.454 410.49 155.676 411.95 153.329C412.656 152.478 413.54 151.807 414.533 151.368C415.526 150.929 416.603 150.733 417.68 150.796C419.282 150.718 420.869 151.145 422.234 152.023C423.511 152.916 424.523 154.163 425.155 155.625C425.155 154.913 425.155 154.16 425.155 153.448C425.155 152.735 425.155 152.023 425.155 151.35H430.202V210.726C430.395 213.586 429.541 216.415 427.812 218.643C426.809 219.641 425.612 220.401 424.303 220.872C422.993 221.344 421.601 221.515 420.223 221.374C418.614 221.417 417.011 221.177 415.479 220.662C414.313 220.243 413.268 219.521 412.444 218.564C411.664 217.6 411.106 216.462 410.812 215.239C410.49 213.759 410.337 212.244 410.357 210.726V208.47H415.745V211.003C415.745 214.289 417.225 215.912 420.109 215.912C422.993 215.912 424.321 214.289 424.321 211.003L424.662 201.384ZM424.662 161.048C424.254 159.946 423.558 158.986 422.651 158.277C421.807 157.658 420.799 157.326 419.767 157.327C419.205 157.268 418.638 157.34 418.106 157.539C417.574 157.737 417.092 158.057 416.694 158.475C416.145 159.414 415.88 160.504 415.935 161.602V194.457C415.831 195.671 416.126 196.885 416.769 197.901C417.169 198.287 417.644 198.578 418.161 198.756C418.678 198.934 419.226 198.993 419.767 198.93C420.793 198.928 421.796 198.611 422.651 198.02C423.572 197.344 424.274 196.391 424.662 195.288V161.048Z" fill="#A0A8B2"/>
<path d="M435.437 213.973C436.401 214.253 437.396 214.399 438.396 214.408C438.934 214.439 439.469 214.311 439.939 214.037C440.409 213.764 440.795 213.357 441.053 212.864C441.693 211.549 442.116 210.131 442.305 208.668L442.646 206.412L434.678 151.232H440.977C441.242 153.369 441.546 155.705 441.887 158.317C442.229 160.93 442.495 163.622 442.798 166.234L443.709 174.626C444.05 177.397 444.316 180.01 444.544 182.543C444.771 185.076 444.999 187.174 445.189 189.114C445.379 191.054 445.568 192.558 445.682 193.587C445.682 192.558 445.948 191.054 446.175 189.114C446.403 187.174 446.593 185.156 446.896 182.543C447.2 179.93 447.503 177.516 447.807 174.626L448.832 166.234C449.173 163.424 449.515 160.732 449.894 158.317C450.273 155.903 450.653 153.369 450.994 151.232H456.762L448.566 208.471C448.317 210.247 447.962 212.005 447.503 213.735C447.172 215.153 446.593 216.495 445.796 217.694C445.082 218.745 444.113 219.578 442.988 220.108C441.606 220.705 440.119 220.988 438.624 220.94C437.542 220.885 436.47 220.685 435.437 220.346V213.973Z" fill="#A0A8B2"/>
</svg>
