<svg width="1433" height="409" viewBox="0 0 1433 409" fill="none" xmlns="http://www.w3.org/2000/svg">
<path d="M111.5 272.024V122.203C112.289 118.25 110.094 114.293 105.233 110.906C102.508 109.688 99.1618 108.752 95.4519 108.169C91.7421 107.586 87.7669 107.371 83.8316 107.542C76.4924 107.612 69.3379 108.532 63.1397 110.203C55.7817 112.204 50.206 115.19 47.2957 118.688V272.024H0V31.0243H47.2957V101.316C53.5105 97.4653 61.5686 94.2146 70.9435 91.7764C80.7997 89.3261 92.0388 88.0592 103.459 88.1112C111.479 87.8293 119.537 88.4081 126.892 89.7943C134.248 91.1805 140.664 93.3296 145.552 96.0441C155.742 103.812 160.307 112.685 158.677 121.55V272.024H111.5Z" fill="#D52B1E"/>
<path d="M184.2 123.6C182.744 113.88 189.267 104.257 202.542 96.5396C209.83 93.2342 218.639 90.6791 228.355 89.0518C238.07 87.4245 248.461 86.7641 258.804 87.1165C269.146 86.7743 279.53 87.4395 289.242 89.0662C298.955 90.6929 307.765 93.2425 315.067 96.5396C328.557 104.214 335.213 113.855 333.746 123.6V238.643C335.413 248.366 328.823 258.012 315.292 265.653C307.951 268.917 299.126 271.435 289.418 273.035C279.709 274.635 269.344 275.279 259.029 274.925C248.713 275.29 238.342 274.65 228.63 273.049C218.917 271.449 210.094 268.925 202.767 265.653C189.419 258.01 182.883 248.421 184.425 238.744L184.2 123.6ZM289.974 124.204C290.485 120.051 288.296 115.92 283.673 112.312C276.966 109.554 268.192 108.023 259.086 108.023C249.98 108.023 241.205 109.554 234.499 112.312C229.876 115.92 227.687 120.051 228.198 124.204V238.643C227.499 242.804 229.701 246.959 234.499 250.535C237.577 252.03 241.412 253.171 245.681 253.864C249.95 254.557 254.528 254.781 259.029 254.516C263.579 254.784 268.205 254.547 272.502 253.826C276.798 253.106 280.634 251.924 283.673 250.384C288.375 246.717 290.567 242.511 289.974 238.29V124.204Z" fill="#D52B1E"/>
<path d="M359 91.6012V34.0243H408.819V101.357H459.758V119.258H409.566V238.384C408.213 243.917 411.694 249.467 419.405 254.074C423.776 255.76 429.003 257.042 434.723 257.833C440.444 258.623 446.521 258.901 452.534 258.65H457.267C458.875 258.652 460.472 258.55 462 258.348V274.489C458.583 274.994 455.029 275.331 451.414 275.495C447.298 275.777 443.133 275.929 438.959 275.948C427.758 276.277 416.522 275.539 406.159 273.792C395.796 272.045 386.596 269.338 379.301 265.891C365.178 257.856 358.239 248.121 359.623 238.284V109.503" fill="#D52B1E"/>
<path d="M133.102 13.8869L147.534 33C178.466 24.9807 212.059 20.8311 246.046 20.8311C280.033 20.8311 313.625 24.9807 344.557 33L359.102 13.8869C323.598 4.7343 285.074 0 246.102 0C207.129 0 168.605 4.7343 133.102 13.8869Z" fill="white"/>
<path d="M163.102 51.5906L177.53 71C199.315 65.1203 223.062 62.0733 247.102 62.0733C271.141 62.0733 294.888 65.1203 316.673 71L331.102 51.5906C304.781 44.6123 276.167 41 247.213 41C218.259 41 189.646 44.6123 163.325 51.5906H163.102Z" fill="white"/>
<path d="M535.352 150.263V106.105H513.27V150.213H497.434V55.056H513.27V97.5045H535.352V55.056H551.098V150.263H535.352Z" fill="white"/>
<path d="M565.306 91.8208C564.842 87.9937 566.901 84.2037 571.098 81.1584C576.046 78.7532 582.397 77.4275 588.971 77.4275C595.544 77.4275 601.895 78.7532 606.844 81.1584C611.072 84.1967 613.164 87.9874 612.726 91.8208V137.086C613.192 140.906 611.097 144.686 606.844 147.698C601.838 150.036 595.509 151.317 588.971 151.317C582.432 151.317 576.103 150.036 571.098 147.698C566.877 144.679 564.814 140.899 565.306 137.086V91.8208ZM598.789 92.0723C598.976 90.4379 598.283 88.8096 596.799 87.3949C594.687 86.2989 591.905 85.6893 589.016 85.6893C586.126 85.6893 583.345 86.2989 581.233 87.3949C579.749 88.8096 579.056 90.4379 579.242 92.0723V137.035C579.029 138.639 579.725 140.24 581.233 141.612C582.214 142.197 583.432 142.644 584.785 142.915C586.139 143.186 587.589 143.274 589.016 143.171C590.45 143.268 591.905 143.172 593.259 142.892C594.613 142.612 595.827 142.156 596.799 141.562C598.306 140.134 599 138.486 598.789 136.834V92.0723Z" fill="white"/>
<path d="M689.124 150.263V90.6645C689.124 87.1439 686.681 85.3333 681.884 85.3333C679.916 85.3478 678.01 85.7186 676.455 86.3895C674.542 87.2819 673.103 88.4468 672.292 89.7592V150.112H657.903V90.6645C657.903 87.1439 655.459 85.3333 650.663 85.3333C648.757 85.3692 646.92 85.7389 645.414 86.3895C643.531 87.2964 642.098 88.4566 641.252 89.7592V150.112H626.953V78.6442H639.08C639.519 80.4106 639.731 82.1922 639.713 83.9754C641.266 81.9953 643.694 80.2653 646.772 78.9459C649.614 77.8065 653.041 77.2068 656.545 77.2359C659.848 77.1262 663.105 77.7044 665.682 78.8575C668.259 80.0106 669.97 81.6559 670.482 83.4724C672.164 81.6328 674.654 80.0587 677.722 78.8957C680.702 77.804 684.197 77.2265 687.767 77.2359C690.081 77.1322 692.402 77.3763 694.488 77.9426C696.574 78.5089 698.347 79.3766 699.622 80.4548C702.591 83.5372 703.91 87.0278 703.423 90.5137V150.263H689.124Z" fill="white"/>
<path d="M748.818 121.193H762.392V136.935C762.392 146.541 754.7 151.369 739.316 151.369C723.931 151.369 716.963 146.34 716.963 136.935V92.1728C716.484 88.2359 718.536 84.3324 722.755 81.1584C724.841 79.8942 727.414 78.9077 730.281 78.272C733.148 77.6364 736.236 77.3681 739.316 77.4869C754.7 77.4869 762.392 82.5163 762.392 92.1728V115.208H730.356V136.834C730.356 141.059 733.373 143.171 739.406 143.171C745.439 143.171 748.456 141.059 748.456 136.834L748.818 121.193ZM748.818 92.2734C748.818 88.0487 745.65 85.886 739.768 85.886C733.886 85.886 730.718 88.0487 730.718 92.2734V109.524H748.818V92.2734Z" fill="white"/>
<path d="M776.52 150.263V55.056H790.908V150.263H776.52Z" fill="white"/>
<path d="M838.138 150.263C837.512 148.849 837.238 147.393 837.323 145.938C835.969 147.561 833.793 148.93 831.061 149.877C828.328 150.824 825.158 151.308 821.939 151.269C819.454 151.371 816.957 151.188 814.606 150.729C812.254 150.27 810.099 149.547 808.274 148.603C806.462 147.416 805.096 146.038 804.257 144.553C803.418 143.067 803.122 141.503 803.387 139.953V129.441C803.205 126.456 804.097 123.481 806.012 120.69C807.607 118.449 810.009 116.412 813.07 114.705C816.173 113.056 819.714 111.682 823.568 110.631C827.55 109.525 831.894 108.418 836.509 107.312V91.7204C836.667 90.1034 835.975 88.4958 834.518 87.0934C832.481 86.0543 829.817 85.4777 827.052 85.4777C824.287 85.4777 821.623 86.0543 819.586 87.0934C818.242 88.5166 817.617 90.1156 817.776 91.7204V106.809H805.016V91.7204C804.538 87.9623 806.426 84.2286 810.355 81.1586C812.56 79.8907 815.251 78.9156 818.229 78.306C821.206 77.6965 824.392 77.4681 827.55 77.638C842.663 77.638 850.174 82.3154 850.174 91.7204V142.015C850.174 143.725 850.174 145.284 850.174 147.044C850.193 148.215 850.466 149.38 850.988 150.515L838.138 150.263ZM836.509 113.699C832.931 114.375 829.524 115.305 826.373 116.465C824.015 117.356 822.038 118.523 820.582 119.885C819.198 121.234 818.307 122.721 817.957 124.261C817.492 126.161 817.28 128.077 817.324 129.994V137.639C817.324 141.562 820.582 143.524 827.097 143.524C829.159 143.543 831.17 143.17 832.799 142.467C834.799 141.622 836.129 140.378 836.509 138.997V113.699Z" fill="white"/>
<path d="M899.139 150.263V91.0165C899.39 89.4655 898.723 87.9112 897.238 86.5906C896.434 86.0996 895.434 85.7208 894.318 85.4849C893.201 85.249 892.001 85.1625 890.813 85.2326C888.596 85.2557 886.433 85.6214 884.569 86.2888C882.333 87.0797 880.643 88.2671 879.772 89.6585V150.012H865.293V78.6441H877.419C877.817 80.4465 878.028 82.26 878.053 84.0758C879.814 82.1339 882.467 80.4854 885.745 79.2979C888.914 78.0924 892.675 77.46 896.514 77.4873C898.953 77.3782 901.402 77.6058 903.644 78.1498C905.886 78.6938 907.851 79.5374 909.365 80.6055C912.519 83.6529 913.939 87.1598 913.437 90.6644V150.263H899.139Z" fill="white"/>
<path d="M963.656 150.263C963.656 149.408 963.656 148.553 963.656 147.648C963.656 146.743 963.656 145.837 963.656 144.932C962.289 146.736 960.03 148.288 957.141 149.408C953.738 150.6 949.756 151.18 945.738 151.068C933.612 151.068 927.639 146.592 927.639 137.639V90.6644C927.109 87.1259 928.7 83.5893 932.164 80.6056C933.976 79.5135 936.217 78.6686 938.712 78.1365C941.208 77.6044 943.891 77.3994 946.552 77.5376C949.715 77.5101 952.835 77.9436 955.602 78.795C958.278 79.5925 960.55 80.7513 962.208 82.1647V55.056H976.326V150.263H963.656ZM961.575 90.3124C960.872 88.9571 959.4 87.7645 957.377 86.9124C955.355 86.0604 952.891 85.5946 950.353 85.5847C949.107 85.5266 947.852 85.6128 946.668 85.8379C945.484 86.0629 944.397 86.422 943.476 86.8924C941.827 88.2323 941.089 89.8546 941.394 91.4691V136.734C941.053 138.382 941.792 140.042 943.476 141.411C944.369 141.907 945.45 142.286 946.639 142.521C947.829 142.756 949.097 142.841 950.353 142.769C952.958 142.733 955.469 142.221 957.498 141.312C959.526 140.402 960.959 139.147 961.575 137.74V90.3124Z" fill="white"/>
<path d="M486.305 211.195C486.305 200.398 495.354 195 513.454 195C531.553 195 540.603 200.398 540.603 211.195V276.074C540.603 286.938 531.553 292.37 513.454 292.37C495.354 292.37 486.305 286.972 486.305 276.175V211.195ZM524.404 211.195C524.404 206.165 520.693 203.902 513.182 203.902C505.671 203.902 502.142 206.316 502.142 211.195V276.074C502.142 281.104 505.852 283.619 513.182 283.619C520.512 283.619 524.404 281.104 524.404 276.074V211.195Z" fill="white"/>
<path d="M554.789 307.458V219.644H566.825C567.267 221.444 567.479 223.259 567.459 225.075C568.772 223.241 571.001 221.653 573.884 220.499C577.258 219.365 581.168 218.821 585.105 218.94C587.676 218.852 590.248 219.098 592.619 219.656C594.99 220.215 597.095 221.071 598.77 222.158C602.291 225.131 603.945 228.668 603.476 232.217V279.041C604.046 282.575 602.486 286.113 599.042 289.1C597.175 290.126 594.929 290.913 592.46 291.408C589.991 291.903 587.358 292.094 584.743 291.967C581.596 291.977 578.49 291.563 575.694 290.76C573.146 290.009 570.97 288.921 569.359 287.591V307.458H554.789ZM589.268 233.575C589.565 231.907 588.796 230.233 587.096 228.848C586.164 228.371 585.062 228.008 583.862 227.783C582.662 227.557 581.389 227.475 580.128 227.54C577.794 227.546 575.52 227.95 573.612 228.697C571.445 229.538 569.851 230.761 569.087 232.167V279.846C569.899 281.239 571.483 282.454 573.612 283.316C575.52 284.063 577.794 284.467 580.128 284.473C581.396 284.532 582.672 284.441 583.873 284.207C585.073 283.973 586.172 283.601 587.096 283.115C588.766 281.836 589.538 280.262 589.268 278.689V233.575Z" fill="white"/>
<path d="M647.544 291.715C646.584 291.921 645.581 292.056 644.558 292.118H640.938C637.734 292.253 634.517 291.968 631.546 291.287C628.576 290.606 625.934 289.547 623.834 288.195C619.809 285.03 617.831 281.201 618.223 277.331V226.685H612.16V219.644H618.223V196.81H632.612V219.493H647.182V226.534H632.612V277.281C632.23 279.461 633.221 281.648 635.418 283.467C636.615 284.104 638.039 284.594 639.597 284.905C641.156 285.217 642.815 285.344 644.467 285.278H645.825C646.271 285.336 646.736 285.336 647.182 285.278L647.544 291.715Z" fill="white"/>
<path d="M658.219 210.491V196.056H672.608V210.491H658.219ZM658.219 291.263V219.644H672.608V291.263H658.219Z" fill="white"/>
<path d="M720.039 262.193H733.342V278.136C733.717 281.872 731.768 285.566 727.822 288.598C725.675 289.956 722.984 291.014 719.966 291.686C716.947 292.359 713.686 292.628 710.446 292.47C707.08 292.644 703.687 292.375 700.543 291.684C697.399 290.994 694.591 289.902 692.347 288.497C688.284 285.433 686.239 281.687 686.555 277.885V233.274C686.27 229.459 688.31 225.702 692.347 222.611C694.545 221.166 697.338 220.036 700.488 219.318C703.639 218.6 707.055 218.315 710.446 218.487C713.685 218.331 716.943 218.615 719.939 219.317C722.935 220.018 725.579 221.114 727.641 222.511C731.381 225.665 733.22 229.4 732.889 233.173V248.664H720.039V233.073C720.039 228.798 716.781 226.685 710.446 226.685C709.087 226.635 707.727 226.769 706.481 227.076C705.236 227.383 704.143 227.853 703.297 228.446C701.542 229.822 700.681 231.489 700.854 233.173V277.684C700.854 282.009 704.021 284.172 710.446 284.172C716.872 284.172 720.039 282.059 720.039 277.835V262.193Z" fill="white"/>
<path d="M778.982 291.263C778.274 289.857 777.969 288.397 778.077 286.938C776.732 288.565 774.558 289.938 771.823 290.886C769.089 291.833 765.914 292.314 762.692 292.269C760.222 292.364 757.743 292.177 755.408 291.719C753.073 291.26 750.932 290.54 749.118 289.603C747.306 288.416 745.94 287.038 745.101 285.553C744.261 284.067 743.966 282.503 744.231 280.953V270.441C744.069 267.461 744.929 264.491 746.765 261.69C748.36 259.449 750.762 257.412 753.824 255.705C756.943 254.044 760.517 252.669 764.412 251.631C768.394 250.525 772.737 249.418 777.262 248.312V232.721C777.464 231.101 776.77 229.487 775.271 228.093C774.406 227.495 773.275 227.032 771.99 226.749C770.704 226.467 769.309 226.376 767.941 226.484C766.545 226.368 765.12 226.455 763.803 226.737C762.486 227.019 761.324 227.487 760.43 228.093C759.009 229.502 758.349 231.109 758.53 232.721V247.809H745.86V232.721C745.382 228.962 747.27 225.229 751.199 222.159C753.39 220.895 756.066 219.922 759.027 219.312C761.989 218.703 765.159 218.472 768.303 218.638C783.416 218.638 791.018 223.316 791.018 232.721V283.015C791.018 284.725 791.018 286.284 791.018 288.044C791.105 289.215 791.409 290.378 791.923 291.515L778.982 291.263ZM777.262 254.699C773.712 255.375 770.335 256.305 767.217 257.465C764.834 258.355 762.827 259.522 761.335 260.885C759.983 262.238 759.122 263.724 758.801 265.261C758.336 267.161 758.124 269.077 758.167 270.995V278.639C758.167 282.562 761.425 284.524 767.941 284.524C770.003 284.543 772.014 284.17 773.642 283.468C775.609 282.613 776.905 281.37 777.262 279.997V254.699Z" fill="white"/>
<path d="M806.215 291.263V196.056H820.604V291.263H806.215Z" fill="white"/>
<path d="M881.185 288.207V201.902H862V193H916.298V201.902H897.113V288.207H881.185Z" fill="white"/>
<path d="M950.227 259.137H963.801V274.879C963.801 284.485 956.109 289.313 940.724 289.313C925.34 289.313 918.553 284.284 918.553 274.778V230.117C918.073 226.18 920.126 222.276 924.344 219.102C926.431 217.838 929.004 216.852 931.871 216.216C934.738 215.58 937.826 215.312 940.905 215.431C956.29 215.431 963.982 220.46 963.982 230.117V253.152H931.946V274.778C931.946 279.003 934.963 281.115 940.996 281.115C947.029 281.115 950.196 279.003 950.498 274.778L950.227 259.137ZM950.227 230.217C950.227 225.993 947.059 223.83 940.724 223.83C934.39 223.83 931.675 225.993 931.675 230.217V247.468H949.774L950.227 230.217Z" fill="white"/>
<path d="M1009.77 259.137H1023.07V275.08C1023.45 278.816 1021.5 282.51 1017.55 285.541C1015.38 286.905 1012.65 287.96 1009.6 288.616C1006.54 289.273 1003.25 289.512 999.993 289.313C996.626 289.495 993.229 289.23 990.082 288.539C986.935 287.848 984.129 286.752 981.894 285.34C977.758 282.294 975.676 278.539 976.012 274.728V230.217C975.708 226.393 977.786 222.627 981.894 219.555C984.082 218.103 986.873 216.968 990.026 216.25C993.18 215.531 996.6 215.25 999.993 215.431C1003.23 215.27 1006.49 215.553 1009.49 216.254C1012.49 216.955 1015.13 218.054 1017.19 219.454C1020.95 222.604 1022.82 226.338 1022.53 230.117V245.607H1009.59V230.016C1009.59 225.741 1006.42 223.629 999.993 223.629C998.635 223.583 997.277 223.719 996.033 224.025C994.789 224.332 993.695 224.799 992.844 225.389C991.121 226.772 990.292 228.438 990.491 230.117V274.627C990.491 278.953 993.658 281.115 999.993 281.115C1006.42 281.115 1009.59 279.003 1009.59 274.778L1009.77 259.137Z" fill="white"/>
<path d="M1070.56 288.207V228.96C1070.82 227.409 1070.15 225.855 1068.66 224.535C1067.86 224.047 1066.85 223.67 1065.74 223.434C1064.62 223.199 1063.43 223.111 1062.24 223.177C1060.02 223.2 1057.86 223.565 1055.99 224.233C1053.76 225.024 1052.07 226.211 1051.2 227.603V287.956H1036.81V193H1051.2V220.612C1053.11 219.099 1055.57 217.83 1058.44 216.89C1061.38 215.897 1064.77 215.391 1068.21 215.431C1070.64 215.317 1073.08 215.543 1075.31 216.087C1077.53 216.632 1079.48 217.479 1080.97 218.55C1084.01 221.619 1085.36 225.116 1084.86 228.608V288.207H1070.56Z" fill="white"/>
<path d="M1133.38 288.208V228.961C1133.61 227.417 1132.98 225.872 1131.57 224.535C1130.75 224.043 1129.73 223.664 1128.6 223.429C1127.47 223.193 1126.26 223.107 1125.06 223.177C1122.84 223.2 1120.68 223.566 1118.81 224.233C1116.6 225.038 1114.91 226.221 1114.01 227.603V287.956H1099.54V216.588H1111.57C1112.01 218.388 1112.22 220.204 1112.2 222.02C1113.93 219.997 1116.58 218.262 1119.9 216.991C1123.09 215.778 1126.89 215.146 1130.76 215.18C1133.18 215.075 1135.61 215.305 1137.84 215.849C1140.07 216.393 1142.02 217.234 1143.52 218.298C1146.67 221.346 1148.09 224.853 1147.59 228.357V288.208H1133.38Z" fill="white"/>
<path d="M1161.28 229.765C1160.84 225.932 1162.93 222.141 1167.16 219.103C1172.1 216.711 1178.44 215.394 1184.99 215.394C1191.54 215.394 1197.87 216.711 1202.82 219.103C1207.12 222.123 1209.24 225.922 1208.79 229.765V275.03C1209.3 278.861 1207.17 282.656 1202.82 285.642C1197.83 287.976 1191.51 289.255 1184.99 289.255C1178.47 289.255 1172.15 287.976 1167.16 285.642C1162.91 282.63 1160.81 278.85 1161.28 275.03V229.765ZM1194.85 229.765C1195.04 228.131 1194.35 226.502 1192.86 225.088C1191.94 224.454 1190.74 223.964 1189.38 223.664C1188.01 223.364 1186.53 223.266 1185.08 223.378C1183.62 223.285 1182.13 223.392 1180.76 223.69C1179.39 223.988 1178.17 224.468 1177.21 225.088C1175.8 226.517 1175.14 228.138 1175.31 229.765V274.728C1175.11 276.324 1175.77 277.917 1177.21 279.305C1178.2 279.897 1179.43 280.348 1180.8 280.62C1182.17 280.891 1183.64 280.975 1185.08 280.864C1186.51 280.96 1187.97 280.865 1189.32 280.585C1190.68 280.305 1191.89 279.849 1192.86 279.255C1194.37 277.827 1195.06 276.178 1194.85 274.527V229.765Z" fill="white"/>
<path d="M1222.89 288.207V193H1237.28V288.207H1222.89Z" fill="white"/>
<path d="M1251.38 229.765C1250.95 225.932 1253.04 222.141 1257.27 219.103C1262.21 216.711 1268.54 215.394 1275.09 215.394C1281.65 215.394 1287.98 216.711 1292.92 219.103C1297.22 222.123 1299.35 225.922 1298.89 229.765V275.03C1299.41 278.861 1297.27 282.656 1292.92 285.642C1287.93 287.976 1281.62 289.255 1275.09 289.255C1268.57 289.255 1262.26 287.976 1257.27 285.642C1253.01 282.63 1250.92 278.85 1251.38 275.03V229.765ZM1284.96 229.765C1285.1 228.133 1284.41 226.512 1282.97 225.088C1280.84 223.988 1278.04 223.377 1275.14 223.377C1272.24 223.377 1269.44 223.988 1267.31 225.088C1265.87 226.512 1265.18 228.133 1265.32 229.765V274.728C1265.15 276.33 1265.84 277.924 1267.31 279.305C1268.3 279.897 1269.53 280.348 1270.91 280.62C1272.28 280.891 1273.74 280.975 1275.18 280.864C1276.62 280.96 1278.07 280.865 1279.43 280.585C1280.78 280.305 1282 279.849 1282.97 279.255C1284.43 277.817 1285.12 276.176 1284.96 274.527V229.765Z" fill="white"/>
<path d="M1345.32 280.311C1343.74 281.747 1341.45 282.9 1338.72 283.63C1335.71 284.458 1332.39 284.872 1329.03 284.837C1326.39 284.977 1323.73 284.778 1321.25 284.255C1318.77 283.732 1316.54 282.898 1314.74 281.819C1311.27 278.837 1309.71 275.295 1310.3 271.761V229.312C1309.87 225.765 1311.52 222.235 1315.01 219.253C1316.69 218.172 1318.8 217.32 1321.17 216.762C1323.54 216.204 1326.1 215.955 1328.67 216.034C1332.49 215.935 1336.28 216.478 1339.53 217.594C1342.58 218.728 1344.99 220.313 1346.5 222.17C1346.5 221.265 1346.5 220.309 1346.5 219.404C1346.5 218.499 1346.5 217.594 1346.5 216.739H1358.54V292.18C1359 295.813 1356.96 299.408 1352.84 302.239C1350.44 303.506 1347.59 304.472 1344.47 305.071C1341.34 305.67 1338.02 305.888 1334.74 305.709C1330.9 305.764 1327.08 305.458 1323.42 304.804C1320.64 304.272 1318.15 303.355 1316.18 302.138C1314.32 300.913 1312.99 299.468 1312.29 297.914C1311.53 296.033 1311.16 294.108 1311.21 292.18V289.313H1324.06V292.532C1324.06 296.706 1327.59 298.769 1334.46 298.769C1341.34 298.769 1344.51 296.706 1344.51 292.532L1345.32 280.311ZM1345.32 229.061C1344.35 227.66 1342.69 226.44 1340.53 225.54C1338.51 224.753 1336.11 224.332 1333.65 224.333C1332.31 224.258 1330.96 224.349 1329.69 224.602C1328.42 224.854 1327.27 225.261 1326.32 225.792C1325.01 226.984 1324.38 228.369 1324.51 229.765V271.509C1324.26 273.051 1324.97 274.593 1326.5 275.885C1327.45 276.375 1328.59 276.745 1329.82 276.971C1331.05 277.197 1332.36 277.272 1333.65 277.192C1336.1 277.189 1338.49 276.787 1340.53 276.036C1342.72 275.177 1344.4 273.966 1345.32 272.565V229.061Z" fill="white"/>
<path d="M1369.27 326C1369.27 326 1375.01 325.985 1378 326C1379.61 326.054 1381.32 325.39 1382.72 324.912C1384.13 324.433 1385.28 323.722 1386.05 322.859C1387.96 320.557 1389.23 318.074 1389.79 315.516L1391.84 302.5L1367 215H1385.82C1386.62 218.741 1387.53 222.828 1388.55 227.4C1389.57 231.972 1390.36 236.683 1391.27 241.255L1393.99 255.941C1395.01 260.79 1401.36 285 1401.36 285L1402.5 279.5C1403.18 276.106 1403.09 274.072 1404 269.5C1404.91 264.928 1405.33 260.998 1406.24 255.941L1409.3 241.255C1410.32 236.336 1411.34 231.626 1412.47 227.4C1413.61 223.174 1414.74 218.741 1415.76 215H1433L1408.51 315.169C1407.76 318.278 1406.7 321.355 1405.33 324.383C1404.34 326.864 1402.61 329.212 1400.23 331.31C1398.09 333.149 1395.2 334.608 1391.84 335.536C1387.71 336.58 1383.26 337.076 1378.79 336.991C1375.5 337 1369.27 336.991 1369.27 336.991V326Z" fill="white"/>
<path d="M583.732 358.04L584.367 317.275L605.323 315.758C609.271 315.472 619.034 316.965 624.361 319.82C624.99 319.447 625.694 319.192 626.45 319.137C628.936 318.958 630.92 320.833 630.881 323.324L630.876 323.62L645.11 322.589L645.006 329.299L680.81 326.709L680.664 336.079L644.86 338.67L644.752 345.586L630.411 346.625C629.94 348.688 628.117 350.341 625.961 350.497C625.3 350.545 624.681 350.44 624.12 350.224C618.763 353.551 608.408 356.257 604.686 356.527L583.732 358.04ZM581.056 322.83L580.587 352.952L555.31 354.781L555.781 324.659L581.056 322.83ZM565.433 335.286L565.526 329.21L560.981 329.539L560.887 335.615L565.433 335.286ZM565.23 343.583L560.684 343.912L560.588 349.987L565.135 349.659L565.23 343.583Z" fill="white"/>
<g clip-path="url(#clip0_1135_640)">
<path fill-rule="evenodd" clip-rule="evenodd" d="M593.053 282.959L592.11 283.958L591.482 283.967L590.66 283.191L592.205 281.556L593.027 282.332L593.053 282.959ZM593.732 283.504L593.571 283.352L593.739 283.174L593.689 281.988L592.22 280.6L591.957 280.879L591.178 280.143L590.694 280.655L591.473 281.391L591.206 281.674L590.427 280.937L589.942 281.45L590.722 282.186L590.455 282.468L589.676 281.732L589.192 282.245L589.971 282.981L589.707 283.26L591.176 284.648L592.362 284.63L592.531 284.452L592.692 284.605L592.97 284.311L597.193 288.301C597.492 288.583 597.484 289.082 597.176 289.408C596.867 289.735 596.37 289.77 596.071 289.488L593.35 286.917C592.793 286.391 591.866 286.458 591.292 287.066L591.05 287.322L591.519 287.765L591.761 287.509C592.07 287.182 592.566 287.146 592.866 287.429L595.587 290.001C596.144 290.527 597.07 290.46 597.645 289.852C598.22 289.243 598.235 288.316 597.677 287.789L593.454 283.799L593.732 283.504Z" fill="white"/>
</g>
<path d="M699.953 326H1374V337H699.953C676.792 337 658 334.538 658 331.5C658 328.462 676.792 326 699.953 326Z" fill="white"/>
<defs>
<clipPath id="clip0_1135_640">
<rect width="11.3689" height="12.4139" fill="white" transform="translate(593.488 294.251) rotate(-136.623)"/>
</clipPath>
</defs>
</svg>
