<svg id="Icons" viewBox="0 0 60 60" xmlns="http://www.w3.org/2000/svg"><path d="m12 51v4c0 2.21 1.79 4 4 4h28c2.21 0 4-1.79 4-4v-50c0-2.21-1.79-4-4-4h-28c-2.21 0-4 1.79-4 4z" fill="#a9efff"/><path d="m43 2c-1.105 0-2 .895-2 2v1c0 1.105-.895 2-2 2h-18c-1.105 0-2-.895-2-2v-1c0-1.105-.895-2-2-2l13-1z" fill="#2d384c"/><path d="m44 60h-28c-2.757 0-5-2.243-5-5v-50c0-2.757 2.243-5 5-5h28c2.757 0 5 2.243 5 5v50c0 2.757-2.243 5-5 5zm-28-58c-1.654 0-3 1.346-3 3v50c0 1.654 1.346 3 3 3h28c1.654 0 3-1.346 3-3v-50c0-1.654-1.346-3-3-3z" fill="#2d384c"/><path d="m36 56h-12c-.553 0-1-.447-1-1s.447-1 1-1h12c.553 0 1 .447 1 1s-.447 1-1 1z" fill="#83c6dd"/><path d="m59 24v12l-7 7h-28.52v-26h28.52z" fill="#6bc444"/><g fill="#9be679"><path d="m59 18v6c-3.87 0-7-3.13-7-7h6c.55 0 1 .45 1 1z"/><path d="m59 36v6c0 .55-.45 1-1 1h-6c0-3.87 3.13-7 7-7z"/><ellipse cx="37" cy="30" rx="6" ry="7"/><ellipse cx="50.5" cy="30" rx="2.5" ry="3"/></g><circle cx="16" cy="30" fill="#fcb029" r="15"/><circle cx="16" cy="30" fill="#fdcd08" r="11"/><path d="m17 29.151v-3.057c1.023.195 1.797.689 2.073 1.37.207.511.791.756 1.303.551.512-.208.758-.791.551-1.303-.579-1.428-2.044-2.388-3.927-2.64v-1.072c0-.553-.447-1-1-1s-1 .447-1 1v1.069c-2.309.316-4 1.709-4 3.431 0 2.368 2.107 3.012 4 3.349v3.057c-1.023-.195-1.797-.689-2.073-1.37-.208-.513-.792-.759-1.303-.551-.512.208-.758.791-.551 1.303.579 1.428 2.044 2.388 3.927 2.64v1.072c0 .553.447 1 1 1s1-.447 1-1v-1.069c2.309-.316 4-1.709 4-3.431 0-2.368-2.107-3.012-4-3.349zm-4-1.651c0-.548.824-1.16 2-1.395v2.703c-1.442-.289-2-.607-2-1.308zm4 6.395v-2.703c1.442.289 2 .607 2 1.308 0 .548-.824 1.16-2 1.395z" fill="#fcb029"/></svg>