<svg id="Layer_1" enable-background="new 0 0 100 100" viewBox="0 0 100 100" xmlns="http://www.w3.org/2000/svg"><path d="m82.0542068 20.6707458h-9.3304443v-15.0672664c.0032196-1.7107885-1.3810501-3.1002612-3.091835-3.1034739-1.7107925-.0032132-3.1002579 1.3810503-3.1034775 3.0918391-.0000076.0038781-.0000076.0077567 0 .0116348v15.0672665h-16.2235184v-15.0672665c.003212-1.7107885-1.3810539-3.1002612-3.0918427-3.1034739-1.7107887-.0032132-3.1002579 1.3810503-3.1034737 3.0918391-.0000038.0038781-.0000038.0077567 0 .0116348v15.0672665h-9.3297195c-1.688591 0-3.0574646 1.3688755-3.0574646 3.0574684 0 1.688591 1.3688736 3.0574665 3.0574646 3.0574665h1.2860832c.3481636 20.9264698 5.3386803 26.124773 12.4795036 27.9371777v4.4109612c0 2.9464302 2.5154533 5.4100952 5.3047218 6.0883484v13.5245819c-.0058479 5.3101501-4.3091202 9.6134262-9.6192703 9.6192703h-24.7756175c-2.5222797 0-4.5669918 2.0447083-4.5669918 4.5669861 0 2.5222855 2.0447121 4.5669937 4.5669918 4.5669937h24.7756672c10.3522072-.0118179 18.7413864-8.4009933 18.7532005-18.7532043v-13.4836732c3.0429993-.4455795 5.2998962-3.0538139 5.3036041-6.129261v-4.4110566c7.14077-1.8124084 12.13134-7.0107002 12.4796143-27.9371243h1.2868042c1.688591 0 3.0574646-1.3688755 3.0574646-3.0574665 0-1.6885928-1.3688735-3.0574684-3.0574646-3.0574684z"/></svg>