<svg id="Layer_1" height="512" viewBox="0 0 48 48" width="512" xmlns="http://www.w3.org/2000/svg" data-name="Layer 1"><rect height="8" rx="2.5" width="5" x="27" y="2"/><path d="m34 5v2.5a4.5 4.5 0 0 1 -9 0v-2.5h-9v2.5a4.5 4.5 0 0 1 -9 0v-2.5a5 5 0 0 0 -5 5v5h37v-5a5 5 0 0 0 -5-5z"/><rect height="8" rx="2.5" width="5" x="9" y="2"/><path d="m24 36a11.985 11.985 0 0 1 5.372-10h-1.372a2 2 0 0 1 -2-2v-2a2 2 0 0 1 2-2h2a2 2 0 0 1 2 2v2a1.981 1.981 0 0 1 -.149.752 11.748 11.748 0 0 1 7.149-.359v-7.393h-37v19a5 5 0 0 0 5 5h18.1a11.926 11.926 0 0 1 -1.1-5zm-10-2a2 2 0 0 1 -2 2h-2a2 2 0 0 1 -2-2v-2a2 2 0 0 1 2-2h2a2 2 0 0 1 2 2zm0-10a2 2 0 0 1 -2 2h-2a2 2 0 0 1 -2-2v-2a2 2 0 0 1 2-2h2a2 2 0 0 1 2 2zm9 10a2 2 0 0 1 -2 2h-2a2 2 0 0 1 -2-2v-2a2 2 0 0 1 2-2h2a2 2 0 0 1 2 2zm0-10a2 2 0 0 1 -2 2h-2a2 2 0 0 1 -2-2v-2a2 2 0 0 1 2-2h2a2 2 0 0 1 2 2z"/><path d="m36 26a10 10 0 1 0 10 10 10 10 0 0 0 -10-10zm3.707 13.707a1 1 0 0 1 -1.414 0l-3-3a1 1 0 0 1 -.293-.707v-6a1 1 0 0 1 2 0v5.586l2.707 2.707a1 1 0 0 1 0 1.414z"/></svg>