<svg viewBox="0 0 32 32" fill="white" xmlns="http://www.w3.org/2000/svg"><g id="Layer_2" data-name="Layer 2"><path d="m25.5 12h-.5v-1a9 9 0 0 0 -18 0v1h-.5a3.5 3.5 0 0 0 -3.5 3.5v3a3.5 3.5 0 0 0 3.5 3.5h.5v1a5.006 5.006 0 0 0 5 5h1.184a3 3 0 1 0 0-2h-1.184a3 3 0 0 1 -3-3v-1a2 2 0 0 0 2-2v-6a2 2 0 0 0 -2-2v-1a7 7 0 0 1 14 0v1a2 2 0 0 0 -2 2v6a2 2 0 0 0 2 2h2.5a3.5 3.5 0 0 0 3.5-3.5v-3a3.5 3.5 0 0 0 -3.5-3.5zm-9.5 14a1 1 0 1 1 -1 1 1 1 0 0 1 1-1zm-7-6h-2.5a1.5 1.5 0 0 1 -1.5-1.5v-3a1.5 1.5 0 0 1 1.5-1.5h2.5zm18-1.5a1.5 1.5 0 0 1 -1.5 1.5h-2.5v-6h2.5a1.5 1.5 0 0 1 1.5 1.5z"/></g></svg>