<svg id="Layer_1" enable-background="new 0 0 512 512" viewBox="0 0 512 512" xmlns="http://www.w3.org/2000/svg"><g><g clip-rule="evenodd" fill-rule="evenodd"><path d="m40.123 45.143h431.755c16.567 0 30.122 13.555 30.122 30.122v140.571c0 16.567-13.555 30.122-30.122 30.122h-431.755c-16.568.001-30.123-13.554-30.123-30.121v-140.572c0-16.567 13.555-30.122 30.123-30.122z" fill="#b1d952"/><path d="m320.561 223.368c12.426 0 22.592 10.167 22.592 22.591v77.816c0-12.477 10.115-22.592 22.592-22.592s22.592 10.115 22.592 22.592c0-12.477 10.115-22.592 22.592-22.592s22.592 10.115 22.592 22.592c0-12.477 10.115-22.592 22.592-22.592s22.592 10.116 22.592 22.592v62.755c0 44.178-36.148 80.327-80.327 80.327h-20.082c-44.178 0-80.326-36.147-80.326-80.327v-140.571c0-12.425 10.166-22.591 22.591-22.591z" fill="#fdbeb9"/><path d="m160.621 129.235c0-30.361 7.487-58.974 20.714-84.092h-141.212c-16.568 0-30.123 13.555-30.123 30.122v140.571c0 16.568 13.555 30.122 30.122 30.122h163.24c-26.663-31.489-42.741-72.228-42.741-116.723z" fill="#91b706"/></g><g><path d="m471.877 35.143h-431.754c-22.124 0-40.123 17.999-40.123 40.123v140.571c0 22.124 17.999 40.123 40.123 40.123h247.847v130.57c0 49.806 40.52 90.327 90.326 90.327h20.082c49.806 0 90.326-40.521 90.326-90.327v-62.754c0-17.971-14.621-32.592-32.592-32.592-8.763 0-16.729 3.476-22.592 9.122-5.863-5.646-13.829-9.122-22.592-9.122s-16.729 3.476-22.592 9.122c-5.863-5.646-13.829-9.122-22.592-9.122-4.461 0-8.716.901-12.592 2.531v-37.755h118.724c22.124 0 40.123-17.999 40.123-40.123v-140.571c.001-22.124-17.998-40.123-40.122-40.123zm-106.132 276.041c6.943 0 12.592 5.648 12.592 12.592 0 5.523 4.477 10 10 10s10-4.477 10-10c0-6.943 5.648-12.592 12.592-12.592s12.592 5.648 12.592 12.592c0 5.523 4.477 10 10 10s10-4.477 10-10c0-6.943 5.648-12.592 12.592-12.592s12.592 5.648 12.592 12.592v62.754c0 38.778-31.548 70.327-70.326 70.327h-20.082c-38.778 0-70.326-31.548-70.326-70.327v-140.571c0-6.943 5.648-12.591 12.592-12.591s12.592 5.648 12.592 12.591v77.816c0 5.523 4.477 10 10 10s10-4.477 10-10c-.002-6.942 5.647-12.591 12.59-12.591zm126.255-95.347c0 11.096-9.027 20.123-20.123 20.123h-120.293c-4.231-13.094-16.538-22.591-31.022-22.591s-26.792 9.497-31.022 22.591h-249.417c-11.096 0-20.123-9.027-20.123-20.123v-140.571c0-11.096 9.027-20.123 20.123-20.123h431.755c11.096 0 20.123 9.027 20.123 20.123v140.571z" fill="#052a75"/><g fill="#fff"><path d="m202.372 140.936h-10.29c-5.523 0-10 4.477-10 10s4.477 10 10 10h.29v5.196c0 5.833-4.746 10.58-10.58 10.58-5.833 0-10.58-4.746-10.58-10.58v-41.161c0-5.834 4.746-10.58 10.58-10.58 3.982 0 7.598 2.23 9.435 5.82 2.516 4.916 8.539 6.862 13.458 4.346 4.917-2.516 6.862-8.542 4.346-13.458-5.275-10.306-15.712-16.708-27.239-16.708-16.862 0-30.58 13.718-30.58 30.58v41.161c0 16.862 13.718 30.58 30.58 30.58s30.58-13.718 30.58-30.58v-15.196c0-5.523-4.477-10-10-10z"/><path d="m123.793 94.391c-5.523 0-10 4.477-10 10v82.32c0 5.523 4.477 10 10 10s10-4.477 10-10v-82.32c0-5.523-4.477-10-10-10z"/><path d="m280.95 94.391c-5.523 0-10 4.477-10 10v39.959l-22.216-44.432c-2.074-4.148-6.73-6.326-11.242-5.26-4.514 1.065-7.703 5.095-7.703 9.732v82.32c0 5.523 4.477 10 10 10s10-4.477 10-10v-39.959l22.216 44.432c1.722 3.443 5.221 5.529 8.942 5.529.762 0 1.533-.087 2.3-.269 4.514-1.065 7.703-5.095 7.703-9.732v-82.32c0-5.523-4.477-10-10-10z"/><path d="m82.427 138.579-10.943-4.532c-2.501-1.036-4.457-3.004-5.508-5.541s-1.059-5.311-.022-7.813c1.036-2.501 3.003-4.458 5.54-5.508s5.312-1.059 7.813-.023l5.471 2.266c5.102 2.115 10.953-.309 13.065-5.412 2.113-5.103-.31-10.952-5.412-13.065l-5.472-2.266c-7.437-3.081-15.648-3.072-23.12.022-7.473 3.095-13.285 8.896-16.364 16.333-6.377 15.395.959 33.107 16.355 39.484l10.942 4.532c5.207 2.157 7.688 8.147 5.531 13.354-1.036 2.501-3.003 4.458-5.54 5.508-2.538 1.051-5.313 1.058-7.813.023l-5.471-2.266c-5.102-2.113-10.952.31-13.066 5.412-2.114 5.103.31 10.952 5.412 13.066l5.472 2.267c3.709 1.536 7.611 2.304 11.518 2.304 3.926 0 7.857-.775 11.603-2.327 7.473-3.095 13.285-8.896 16.364-16.333 6.376-15.396-.96-33.108-16.355-39.485z"/><path d="m436.236 94.39h-20.58c-5.523 0-10 4.477-10 10v82.322c0 5.523 4.477 10 10 10s10-4.477 10-10v-31.162h10.58c16.862 0 30.58-13.718 30.58-30.58s-13.718-30.58-30.58-30.58zm0 41.16h-10.58v-21.16h10.58c5.834 0 10.58 4.746 10.58 10.58s-4.746 10.58-10.58 10.58z"/><path d="m378.238 94.391c-5.523 0-10 4.477-10 10v61.74c0 5.834-4.746 10.58-10.58 10.58-5.833 0-10.58-4.746-10.58-10.58v-61.74c0-5.523-4.477-10-10-10s-10 4.477-10 10v61.74c0 16.862 13.718 30.58 30.58 30.58s30.58-13.718 30.58-30.58v-61.74c0-5.523-4.477-10-10-10z"/></g></g></g><g/><g/><g/><g/><g/><g/><g/><g/><g/><g/><g/><g/><g/><g/><g/></svg>