<svg id="Capa_1" enable-background="new 0 0 512 512" height="512" viewBox="0 0 512 512" width="512" xmlns="http://www.w3.org/2000/svg"><g><g><g><g><g><g><path d="m316.354 135.255v-29.846c0-45.846-37.166-83.011-83.012-83.011h-36.41c-45.846 0-83.011 37.166-83.011 83.011v29.846c59.262-46.555 143.17-46.555 202.433 0z" fill="#26a6fe"/></g><g><g><path d="m274 91.665v19.546c14.968 5.741 29.261 13.759 42.354 24.045v-29.846c0-44.664-35.278-81.074-79.488-82.922 22.377 14.869 37.134 40.295 37.134 69.177z" fill="#0593fc"/></g></g><g><g><path d="m137.989 213.59v-61.122l.244-.169-.244-.354-.002.003-.021-.03h-.539l.33.48-.182.356-.575-.836h-1.699c-2.899 2.061-5.733 4.234-8.432 6.488-2.235 1.865-5.133 2.892-8.16 2.892-2.84 0-5.574-.934-7.718-2.583-5.69 5.003-9.286 12.332-9.286 20.505v8.221c0 15.078 12.223 27.302 27.302 27.302h9.011c-.007-.385-.029-.767-.029-1.153z" fill="#ffcebf"/></g><g><path d="m319.277 158.709c-2.175 1.666-4.892 2.589-7.713 2.589-3.027 0-5.925-1.027-8.16-2.892-2.695-2.249-5.529-4.423-8.432-6.488h-1.707l-.582.825-.188-.378.328-.447h-.518l-.019.027-.247.352.247.171v61.121c0 .387-.022.768-.029 1.153h9.011c15.078 0 27.302-12.223 27.302-27.302v-8.221c0-8.175-3.599-15.506-9.293-20.51z" fill="#ffb09e"/></g></g><g><g><path d="m114.856 294.157c-2.886 0-5.721.218-8.495.623-5.841 10.4-15.108 18.608-26.265 23.126v71.715c5.454 1.521 9.625 6.341 9.724 12.217.101 5.999-3.881 11.074-9.346 12.655 5.398 1.561 9.348 6.531 9.348 12.432s-3.951 10.87-9.348 12.432c5.398 1.562 9.348 6.531 9.348 12.432s-3.951 10.87-9.348 12.432c5.466 1.581 9.448 6.657 9.346 12.655-.12 7.137-6.241 12.726-13.379 12.726h134.911v-195.445z" fill="#26a6fe"/><path d="m211.352 275.719c0-.714.077-1.41.219-2.083h-14.536c-7.539 0-14.748-1.402-21.396-3.939l-15.413 11.23c-3.875 2.823-6.167 7.329-6.167 12.124v65.852c0 3.76 4.438 5.759 7.254 3.267l50.04-44.276v-42.175z" fill="#f2fbff"/><path d="m211.352 275.719c0-1.029.156-2.021.443-2.955h-14.76c-6.652 0-13.045-1.12-19.018-3.153v22.628c0 1.223.513 2.39 1.415 3.216l31.92 29.252z" fill="#ffcebf"/><path d="m221.401 265.67h41.711c18.026-10.362 30.174-29.796 30.174-52.08v-61.644c-22.635-16.341-49.926-25.224-78.149-25.224s-55.513 8.883-78.149 25.223v61.645c0 33.163 26.884 60.046 60.046 60.046h14.536c.961-4.55 4.996-7.966 9.831-7.966z" fill="#ffdfcf"/><g><path d="m263.112 265.67c18.026-10.362 30.174-29.796 30.174-52.08v-61.644c-9.587-6.921-20.015-12.487-30.989-16.624v78.269c0 22.284-12.148 41.718-30.174 52.08h30.989z" fill="#ffcebf"/></g></g></g></g><g><path d="m320.271 138.418c-60.726-50.784-149.541-50.784-210.267 0-6.105 5.105-6.533 14.344-.906 19.971l.062.062c4.863 4.863 13.071 5.129 18.351.723 50.639-42.256 124.616-42.256 175.254 0 5.28 4.406 13.488 4.14 18.351-.723l.062-.062c5.626-5.627 5.197-14.866-.907-19.971z" fill="#dff6fd"/></g><g><g><path d="m320.271 138.418c-23.611-19.746-51.47-31.81-80.272-36.201 17.155 6.341 33.465 15.636 48.134 27.903 5.888 4.924 6.478 13.683 1.465 19.349 4.532 2.942 8.932 6.172 13.166 9.705 5.28 4.406 13.488 4.14 18.351-.723l.062-.062c5.627-5.627 5.198-14.866-.906-19.971z" fill="#c8effe"/></g></g></g></g><g><path d="m212.352 454.969h-82.625c-8.325 0-15.073 6.749-15.073 15.073v19.56h97.698z" fill="#465a61"/></g><g><path d="m489.426 489.602h-278.074v-213.883c0-5.55 4.499-10.049 10.049-10.049h273.05c5.55 0 10.049 4.499 10.049 10.049v198.81c0 8.324-6.749 15.073-15.074 15.073z" fill="#596c76"/></g><g><path d="m494.451 265.67h-42.353c5.55 0 10.049 4.499 10.049 10.049v198.81c0 8.325-6.749 15.073-15.073 15.073h42.352c8.325 0 15.073-6.749 15.073-15.073v-198.81c.001-5.55-4.498-10.049-10.048-10.049z" fill="#465a61"/></g><g><path d="m384.391 394.94h-52.929c-9.557 0-17.304-7.747-17.304-17.304 0-9.557 7.747-17.304 17.304-17.304h52.929c9.557 0 17.304 7.747 17.304 17.304 0 9.556-7.748 17.304-17.304 17.304z" fill="#6cf5c2"/></g><g><path d="m384.391 360.332h-33.695c9.557 0 17.304 7.747 17.304 17.304s-7.747 17.304-17.304 17.304h33.695c9.557 0 17.304-7.747 17.304-17.304s-7.748-17.304-17.304-17.304z" fill="#00f2a6"/></g></g><g><g><path d="m52.885 389.113h23.556c1.26 0 2.485.183 3.655.509v-72.41c-6.199 2.543-12.896 3.88-19.798 3.88-.001 0-.001 0-.002 0-.933 0-1.881-.025-2.816-.074-5.975-.314-11.692-1.665-16.982-3.864v75.752c3.534-2.394 7.797-3.793 12.387-3.793z" fill="#ffe177"/><g><path d="m77.896 224.186v46.449c0 3.706-3.004 6.71-6.71 6.71h-21.778c-3.706 0-6.71-3.004-6.71-6.71v-46.448c0-2.465-2.567-4.082-4.798-3.035-18.447 8.654-31.071 27.66-30.372 49.541.87 27.237 22.704 49.562 49.917 50.994 30.454 1.602 55.65-22.618 55.65-52.722 0-21.145-12.435-39.378-30.388-47.807-2.238-1.05-4.811.557-4.811 3.028z" fill="#ffd15b"/></g></g><g><g><g><path d="m89.822 426.926c0-5.901-3.951-10.87-9.349-12.432 5.466-1.581 9.448-6.657 9.347-12.655-.12-7.137-6.242-12.726-13.379-12.726h-23.556c-12.213 0-22.113 9.9-22.113 22.113v56.263c0 12.213 9.9 22.113 22.113 22.113h23.556c7.138 0 13.259-5.589 13.379-12.726.101-5.999-3.881-11.074-9.347-12.655 5.398-1.561 9.349-6.531 9.349-12.432s-3.951-10.87-9.349-12.432c5.398-1.561 9.349-6.531 9.349-12.431z" fill="#ffdfcf"/></g></g></g><g><path d="m89.822 451.789c0-5.901-3.951-10.87-9.348-12.432 5.398-1.561 9.348-6.531 9.348-12.432s-3.951-10.87-9.348-12.432c5.466-1.581 9.448-6.657 9.346-12.655-.12-7.137-6.241-12.726-13.379-12.726h-23.556c-1.542 0-3.046.159-4.499.459 10.055 2.079 17.614 10.984 17.614 21.655v56.263c0 10.671-7.559 19.576-17.614 21.654 1.453.3 2.957.459 4.499.459h23.556c7.138 0 13.259-5.589 13.379-12.726.101-5.999-3.881-11.074-9.346-12.655 5.397-1.562 9.348-6.531 9.348-12.432z" fill="#ffcebf"/></g></g><g><path d="m220.884 249.884c17.126 0 31.06-13.933 31.06-31.06 0-4.142-3.357-7.5-7.5-7.5s-7.5 3.358-7.5 7.5c0 8.855-7.204 16.06-16.06 16.06h-11.492c-8.855 0-16.06-7.204-16.06-16.06 0-4.142-3.357-7.5-7.5-7.5s-7.5 3.358-7.5 7.5c0 17.126 13.934 31.06 31.06 31.06z"/><path d="m182.586 174.377v-14.653c0-4.142-3.357-7.5-7.5-7.5s-7.5 3.358-7.5 7.5v14.653c0 4.142 3.357 7.5 7.5 7.5s7.5-3.358 7.5-7.5z"/><path d="m255.188 181.877c4.143 0 7.5-3.358 7.5-7.5v-14.653c0-4.142-3.357-7.5-7.5-7.5s-7.5 3.358-7.5 7.5v14.653c0 4.142 3.358 7.5 7.5 7.5z"/><path d="m215.137 200.3c4.143 0 7.5-3.358 7.5-7.5s-3.357-7.5-7.5-7.5c-2.06 0-3.734-1.675-3.734-3.734s1.675-3.734 3.734-3.734c4.143 0 7.5-3.358 7.5-7.5s-3.357-7.5-7.5-7.5c-10.33 0-18.734 8.404-18.734 18.734s8.404 18.734 18.734 18.734z"/><path d="m384.39 352.832h-52.929c-13.678 0-24.805 11.127-24.805 24.804s11.127 24.804 24.805 24.804h52.929c13.677 0 24.804-11.127 24.804-24.804s-11.127-24.804-24.804-24.804zm0 34.608h-52.929c-5.406 0-9.805-4.398-9.805-9.804s4.398-9.804 9.805-9.804h52.929c5.406 0 9.804 4.398 9.804 9.804s-4.397 9.804-9.804 9.804z"/><path d="m494.451 258.17h-51.451c-4.143 0-7.5 3.358-7.5 7.5s3.357 7.5 7.5 7.5h51.451c1.405 0 2.549 1.144 2.549 2.549v198.81c0 4.176-3.397 7.573-7.573 7.573h-270.575v-206.383c0-1.405 1.144-2.549 2.549-2.549h186.599c4.143 0 7.5-3.358 7.5-7.5s-3.357-7.5-7.5-7.5h-124.061c8.679-9.858 14.519-22.262 16.276-35.927h1.053c19.19 0 34.803-15.612 34.803-34.802v-8.221c0-7.17-2.23-14.089-6.26-19.872 1.988-3.444 2.986-7.422 2.807-11.458-.263-5.891-3.009-11.441-7.534-15.226-.406-.34-.82-.669-1.229-1.005v-26.25c0-49.908-40.604-90.512-90.512-90.512h-36.41c-19.586 0-38.232 6.161-53.922 17.816-3.325 2.47-4.018 7.168-1.548 10.493s7.168 4.017 10.493 1.548c13.084-9.719 28.637-14.857 44.977-14.857h36.41c41.638 0 75.512 33.875 75.512 75.512v15.26c-27.701-18.055-60.313-27.84-93.717-27.84s-66.016 9.785-93.717 27.84v-15.26c0-12.819 3.283-25.493 9.494-36.653 2.014-3.62.713-8.187-2.906-10.201-3.621-2.015-8.187-.713-10.201 2.906-7.449 13.386-11.387 28.583-11.387 43.948v26.251c-.409.336-.823.665-1.229 1.005-4.526 3.785-7.272 9.335-7.534 15.227-.178 4.025.814 7.992 2.811 11.449-4.032 5.784-6.264 12.706-6.264 19.879v8.221c0 19.19 15.612 34.802 34.802 34.802h1.038c2.634 20.489 14.487 38.127 31.25 48.625l-5.486 3.997c-4.026 2.933-6.92 7.111-8.313 11.792h-29.523c1.721-5.649 2.621-11.591 2.621-17.692 0-23.27-13.62-44.699-34.699-54.596-3.396-1.595-7.309-1.346-10.47.662-3.148 2-5.028 5.423-5.028 9.155v45.66h-20.199v-45.658c0-3.733-1.881-7.157-5.031-9.159-3.157-2.007-7.064-2.255-10.453-.666-21.839 10.246-35.452 32.451-34.683 56.57.716 22.411 13.982 41.976 32.967 51.733v14.334c0 4.142 3.357 7.5 7.5 7.5s7.5-3.358 7.5-7.5v-9.013c2.948.618 5.969 1.028 9.053 1.19 1.101.058 2.196.086 3.289.086 4.167 0 8.265-.433 12.256-1.254v53.603h-19.711c-1.665 0-3.296.145-4.887.41v-10.022c0-4.142-3.357-7.5-7.5-7.5s-7.5 3.358-7.5 7.5v17.303c-5.971 5.421-9.727 13.242-9.727 21.924v56.263c0 16.329 13.284 29.613 29.613 29.613h436.542c12.447 0 22.573-10.126 22.573-22.573v-198.81c.001-9.678-7.871-17.55-17.548-17.55zm-173.381-70.729c0 10.919-8.884 19.802-19.803 19.802h-.481v-40.344c5.281 3.098 11.623 3.722 17.304 1.9 1.924 3.102 2.98 6.703 2.98 10.421zm-5.61-43.27c1.324 1.107 2.095 2.665 2.172 4.385.076 1.71-.549 3.319-1.819 4.591-2.075 2.077-5.928 2.201-8.243.268-26.782-22.35-59.602-33.52-92.432-33.52-32.822 0-65.656 11.176-92.432 33.52-2.317 1.933-6.169 1.807-8.305-.33-1.21-1.209-1.834-2.817-1.758-4.528.076-1.721.848-3.279 2.172-4.386 28.023-23.435 63.651-36.341 100.322-36.341s72.299 12.906 100.323 36.341zm-206.255 43.27v-8.221c0-3.719 1.057-7.321 2.981-10.424 2.111.675 4.312 1.032 6.523 1.032 3.726 0 7.461-.976 10.779-2.922v40.337h-.482c-10.918 0-19.801-8.883-19.801-19.802zm35.284 26.149v-57.664c42.87-28.03 98.427-28.03 141.297 0v57.664c0 18.793-9.926 35.295-24.803 44.58h-39.582c-6.141 0-11.546 3.176-14.683 7.966h-9.683c-28.974 0-52.546-23.572-52.546-52.546zm29.876 87.393 21.998 20.159-34.804 30.795v-58.887c0-2.389 1.152-4.655 3.083-6.062l5.875-4.28v9.53c-.001 3.318 1.403 6.507 3.848 8.745zm11.151-10.127v-10.723c3.746.647 7.591 1.003 11.519 1.003h6.817v26.523zm-127.678 23.342c-23.264-1.224-42.07-20.438-42.814-43.744-.506-15.848 7.25-30.595 20.175-39.197v39.378c0 7.835 6.375 14.21 14.21 14.21h21.777c7.836 0 14.211-6.375 14.211-14.21v-39.369c12.447 8.322 20.197 22.488 20.197 37.698 0 12.551-5.017 24.224-14.126 32.866-9.103 8.638-21.052 13.026-33.63 12.368zm20.551 132.364c2.315.67 3.933 2.819 3.933 5.227s-1.617 4.557-3.933 5.227c-3.208.928-5.416 3.865-5.416 7.205s2.208 6.277 5.416 7.205c2.356.682 3.974 2.871 3.932 5.325-.049 2.901-2.741 5.352-5.88 5.352h-23.556c-8.058 0-14.613-6.556-14.613-14.613v-56.263c0-8.058 6.556-14.613 14.613-14.613h23.557c3.139 0 5.831 2.451 5.88 5.353.042 2.453-1.575 4.642-3.932 5.324-3.208.928-5.416 3.865-5.416 7.205 0 3.339 2.208 6.277 5.417 7.204 2.314.67 3.932 2.819 3.932 5.227s-1.617 4.557-3.933 5.227c-3.208.928-5.416 3.865-5.416 7.205s2.207 6.275 5.415 7.203zm125.463 35.54h-81.698v-12.06c0-4.176 3.397-7.573 7.573-7.573h74.125zm-74.125-34.633c-12.447 0-22.573 10.126-22.573 22.573v12.06h-10.616c.466-1.632.752-3.335.781-5.099.08-4.739-1.488-9.215-4.235-12.793 2.676-3.49 4.238-7.83 4.238-12.42 0-4.595-1.566-8.939-4.247-12.432 2.681-3.492 4.247-7.836 4.247-12.432 0-4.59-1.563-8.931-4.238-12.421 2.747-3.578 4.315-8.054 4.235-12.792-.119-7.081-3.994-13.304-9.724-16.886v-62.061c5.119-2.609 9.896-5.972 14.196-10.052 3.497-3.318 6.525-6.98 9.086-10.9 1.313-.102 2.64-.156 3.979-.156h31.702v57.244c0 4.73 2.679 8.875 6.991 10.817 1.593.717 3.263 1.069 4.914 1.068 2.819 0 5.586-1.024 7.818-3.001l37.57-33.242v112.925z"/></g></g></svg>