<svg height="512" viewBox="0 0 512 512" width="512" xmlns="http://www.w3.org/2000/svg"><g id="Filled_outline" data-name="Filled outline"><path d="m24 304v16a24 24 0 0 0 24 24h240a24 24 0 0 0 24-24v-16z" fill="#e0e0de"/><path d="m208 392h-80l16-48h48z" fill="#c7c7c5"/><rect fill="#e0e0de" height="32" rx="16" width="144" x="96" y="392"/><path d="m312 104a24 24 0 0 0 -24-24h-240a24 24 0 0 0 -24 24v200h288z" fill="#4db7e5"/><path d="m302.779 85.221-218.779 218.779h228v-200a23.86 23.86 0 0 0 -9.221-18.779z" fill="#48add9"/><path d="m240 216v-32h-18.35a55.684 55.684 0 0 0 -4.383-10.64l12.959-12.96-22.626-22.626-12.96 12.959a55.684 55.684 0 0 0 -10.64-4.383v-18.35h-32v18.35a55.684 55.684 0 0 0 -10.64 4.383l-12.96-12.959-22.626 22.626 12.959 12.958a55.684 55.684 0 0 0 -4.383 10.642h-18.35v32h18.35a55.648 55.648 0 0 0 4.383 10.639l-6.733 6.733-6.226 6.226 22.626 22.627 12.958-12.958a55.684 55.684 0 0 0 10.642 4.383v18.35h32v-18.35a55.684 55.684 0 0 0 10.64-4.383l12.96 12.958 22.626-22.625-12.959-12.959a55.648 55.648 0 0 0 4.383-10.641zm-72 8a24 24 0 1 1 24-24 24 24 0 0 1 -24 24z" fill="#ffb531"/><path d="m217.267 173.36 12.959-12.96-11.314-11.314-33.941 33.941a24 24 0 0 1 -33.942 33.942l-33.941 33.941 11.312 11.315 12.958-12.958a55.684 55.684 0 0 0 10.642 4.383v18.35h32v-18.35a55.684 55.684 0 0 0 10.64-4.383l12.96 12.958 22.626-22.625-12.959-12.959a55.648 55.648 0 0 0 4.383-10.641h18.35v-32h-18.35a55.684 55.684 0 0 0 -4.383-10.64z" fill="#ffa912"/><path d="m408 300.57v59.43h-144v-59.43l32-4.57v-64h80v64z" fill="#fec9a3"/><path d="m488 353.63v134.37h-304v-134.37a48 48 0 0 1 41.21-47.52l58.73-8.39 52.06 46.28 52.06-46.28 58.73 8.39a48 48 0 0 1 41.21 47.52z" fill="#49648e"/><path d="m488 353.63v134.37h-194.61c68.69-36.97 126.33-78.81 174.43-173.49a47.973 47.973 0 0 1 20.18 39.12z" fill="#425b82"/><path d="m184 408h64v80h-64z" fill="#fec9a3"/><path d="m424 408h64v80h-64z" fill="#fec9a3"/><g fill="#feb784"><path d="m296 232v30.19a63.811 63.811 0 0 0 33.97 9.81h12.06a63.811 63.811 0 0 0 33.97-9.81v-30.19z"/><path d="m256.4 128h-.4a24 24 0 0 0 0 48h8v-48z"/><path d="m416 128h-8v48h8a24 24 0 1 0 0-48z"/></g><path d="m408 120v56a129.863 129.863 0 0 1 -3.88 31.52 64.008 64.008 0 0 1 -62.09 48.48h-12.06a64 64 0 0 1 -62.09-48.48 129.475 129.475 0 0 1 -3.88-31.52v-56a72 72 0 0 1 71.06-71.99c.31-.01.63-.01.94-.01a72.006 72.006 0 0 1 72 72z" fill="#fec9a3"/><path d="m408 120v56a129.863 129.863 0 0 1 -3.88 31.52 64.008 64.008 0 0 1 -62.09 48.48h-6.99a87.842 87.842 0 0 0 37.41-72v-64a88 88 0 0 0 -37.39-71.99c.31-.01.63-.01.94-.01a72.006 72.006 0 0 1 72 72z" fill="#fec093"/><path d="m402.349 118.74-26.349-30.74-5.8 1.159a174.36 174.36 0 0 1 -68.4 0l-5.8-1.159-26.349 30.74-5.651 6.593v23.013a23.844 23.844 0 0 0 16.724 3.312l21.94-3.658a192.007 192.007 0 0 1 63.129 0l21.94 3.657a23.889 23.889 0 0 0 20.267-5.987v-20.337z" fill="#fec093"/><path d="m301.8 89.157a174.36 174.36 0 0 0 68.4 0l5.8-1.157 32 37.333v-5.333a72 72 0 0 0 -144 0v5.331l32-37.331z" fill="#95573a"/><path d="m397 299-21-11-40 56 48 24z" fill="#6d7e9b"/><path d="m336 344-40-56-21 11 13 69z" fill="#6d7e9b"/><path d="m419.542 111.8a24.289 24.289 0 0 1 -28.27 23.86l-21.94-3.66a192.325 192.325 0 0 0 -63.12 0l-21.94 3.66a24.247 24.247 0 0 1 -26.5-32.92h160a24.361 24.361 0 0 1 1.77 9.06z" fill="#49648e"/><path d="m417.772 70.737v32h-160v-32a48 48 0 0 1 48-48h64a47.982 47.982 0 0 1 15.18 2.46c.89.3 1.77.62 2.63.97a47.98 47.98 0 0 1 30.19 44.57z" fill="#425b82"/><path d="m417.772 70.737v32h-136c48-16 81.59-44.03 105.81-76.57a47.98 47.98 0 0 1 30.19 44.57z" fill="#3c5174"/><path d="m419.542 111.8a24.289 24.289 0 0 1 -28.27 23.86l-21.94-3.66a191.346 191.346 0 0 0 -20.52-2.29c16.84-7.09 30.66-15.9 40.81-26.97h28.15a24.361 24.361 0 0 1 1.77 9.06z" fill="#425b82"/><path d="m312 64h48v16h-48z" fill="#e0e0de"/><path d="m344 64h16v16h-16z" fill="#d6d6d4"/><path d="m312 80h48v16h-48z" fill="#3c5174"/><path d="m48 104h16v16h-16z"/><path d="m80 104h16v16h-16z"/><path d="m112 104h16v16h-16z"/><path d="m168 168a32 32 0 1 0 32 32 32.036 32.036 0 0 0 -32-32zm0 48a16 16 0 1 1 16-16 16.019 16.019 0 0 1 -16 16z"/><path d="m447.928 298.16-48.466-6.9-15.462-8.101v-32.721c.8-.576 1.578-1.162 2.325-1.764a72.119 72.119 0 0 0 25.506-39.174 134.2 134.2 0 0 0 3.931-25.5h.238a32 32 0 0 0 8.712-62.785 31.86 31.86 0 0 0 -.712-18.608v-30.607a56 56 0 0 0 -56-56h-64a56 56 0 0 0 -56 56h-200a32.036 32.036 0 0 0 -32 32v216a32.036 32.036 0 0 0 32 32h84.9l-10.667 32h-10.233a24.114 24.114 0 0 0 -24 24 24.027 24.027 0 0 0 24 24h64v56h16v-72h48v72h16v-112h-16v24h-48v-46.4a40.284 40.284 0 0 1 34.319-39.6l42.242-5.967 11.577 61.447a8 8 0 0 0 7.862 6.52c2.833 0 7.178-2.645 7.178-2.645l32.822-16.411v67.056h16v-67.056l36.422 18.211a8 8 0 0 0 11.44-5.674l11.586-61.494 42.2 6.009a40.293 40.293 0 0 1 34.352 39.604v46.4h-48v-24h-16v112h16v-72h48v72h16v-134.4a56.385 56.385 0 0 0 -48.072-55.44zm-111.928 32.076-32-44.8v-26.323c1.888.724 3.8 1.373 5.747 1.924a69.545 69.545 0 0 0 20.253 2.963h12a71.563 71.563 0 0 0 26-4.869v26.305zm60.324-124.677a56.054 56.054 0 0 1 -19.86 30.514l-.137.109a41.957 41.957 0 0 1 -4.487 3.145c-.047.028-.093.057-.139.086a55.154 55.154 0 0 1 -29.701 8.587h-12a53.554 53.554 0 0 1 -15.663-2.291l-.167-.049a52.7 52.7 0 0 1 -13.926-6.281 55.441 55.441 0 0 1 -24.574-33.842 119.266 119.266 0 0 1 -3.67-29.537v-31.385a32.557 32.557 0 0 0 11.811.195l4.89-.816a12 12 0 1 0 20.714-3.414 183.523 183.523 0 0 1 53.17 0 12.006 12.006 0 1 0 20.715 3.42c.669 1.881 14.186 1.112 16.764.644-.388 10.401-.064 20.923-.064 31.356a119.292 119.292 0 0 1 -3.676 29.559zm-151.624-42.259a15.983 15.983 0 0 1 11.22-27.3l.08.082v31.918a16.105 16.105 0 0 1 -11.3-4.7zm-33.09 69 7.3 7.3-11.31 11.311-7.3-7.3a8 8 0 0 0 -9.468-1.377 47.668 47.668 0 0 1 -9.112 3.75 8 8 0 0 0 -5.72 7.666v10.35h-16v-10.35a8 8 0 0 0 -5.716-7.667 47.668 47.668 0 0 1 -9.112-3.75 8.005 8.005 0 0 0 -9.468 1.377l-7.3 7.3-11.316-11.31 7.3-7.3a8 8 0 0 0 1.377-9.468 47.7 47.7 0 0 1 -3.75-9.111 8 8 0 0 0 -7.665-5.721h-10.35v-16h10.35a8 8 0 0 0 7.667-5.716 47.722 47.722 0 0 1 3.75-9.112 8 8 0 0 0 -1.377-9.469l-7.3-7.3 11.31-11.315 7.3 7.3a8 8 0 0 0 9.468 1.376 47.7 47.7 0 0 1 9.11-3.748 8 8 0 0 0 5.722-7.666v-10.35h16v10.35a8 8 0 0 0 5.718 7.668 47.7 47.7 0 0 1 9.11 3.748 8 8 0 0 0 9.468-1.376l7.3-7.3 11.316 11.31-7.3 7.3a8 8 0 0 0 -1.377 9.469 47.722 47.722 0 0 1 3.75 9.112 8 8 0 0 0 7.665 5.719h10.35v16h-10.35a8 8 0 0 0 -7.667 5.716 47.7 47.7 0 0 1 -3.75 9.111 8 8 0 0 0 1.377 9.473zm15.716-56.3q-.2-.492-.4-.981l3.644-3.644a31.719 31.719 0 0 0 2.817 3.241c.48.48.979.937 1.488 1.384zm178.819-52.812a16.051 16.051 0 0 1 -15.325 5.838l-21.94-3.657a199.53 199.53 0 0 0 -65.76 0l-21.94 3.656a16.277 16.277 0 0 1 -18.905-17.025h147.45a16.063 16.063 0 0 1 -3.58 11.188zm25.855 28.812a16.035 16.035 0 0 1 -16 16v-31.9c.032-.032.066-.06.1-.092a16.015 16.015 0 0 1 15.9 15.992zm-168-80a40 40 0 0 1 40-40h64a40 40 0 0 1 40 40v24h-144zm-114.234 280h26.271c-.015.533-.037 1.064-.037 1.6v30.4h-36.9zm-37.766 64a8.009 8.009 0 0 1 -8-8 7.656 7.656 0 0 1 2.3-5.546c.053-.051.105-.1.156-.155a7.655 7.655 0 0 1 5.544-2.299h64v16zm66.887-80h-130.887a16.019 16.019 0 0 1 -16-16v-8h162.69a56.7 56.7 0 0 0 -15.803 24zm93.5-44.665-33.02 4.665h-207.367v-192a16.019 16.019 0 0 1 16-16h200v14.607a31.86 31.86 0 0 0 -.712 18.608 32.117 32.117 0 0 0 -22.248 22.685l-11.785-11.786a8 8 0 0 0 -11.314 0l-8.96 8.96q-.487-.206-.981-.4v-12.674a8 8 0 0 0 -8-8h-32a8 8 0 0 0 -8 8v12.674q-.494.2-.981.4l-8.96-8.96a8 8 0 0 0 -11.314 0l-22.627 22.628a8 8 0 0 0 0 11.315l8.96 8.959q-.206.489-.4.981h-12.678a8 8 0 0 0 -8 8v32a8 8 0 0 0 8 8h12.675q.2.492.4.98l-8.96 8.96a8 8 0 0 0 0 11.315l22.627 22.627a8 8 0 0 0 11.314 0l8.96-8.959c.325.137.652.27.981.4v12.68a8 8 0 0 0 8 8h32a8 8 0 0 0 8-8v-12.675c.329-.132.656-.265.981-.4l8.96 8.959a8 8 0 0 0 11.314 0l22.627-22.627a8 8 0 0 0 0-11.314l-8.96-8.961q.206-.487.4-.98h12.681a8 8 0 0 0 8-8v-32.002a8.065 8.065 0 0 0 -.078-1.061 31.688 31.688 0 0 0 8.078 1.061h.238a133.907 133.907 0 0 0 3.916 25.442 71.2 71.2 0 0 0 27.846 40.969v32.748zm21.509 64.77-9.942-52.766 9.582-5.02 30.508 42.712zm84.2 0-30.148-15.074 30.508-42.712 9.582 5.02z"/><path d="m323.247 190.534h-11.247v16h11.247a112.566 112.566 0 0 0 39.6-6.857l-5.69-14.953a96.487 96.487 0 0 1 -33.91 5.81z"/><path d="m312 64h48v16h-48z"/><path d="m304 384h16v16h-16z"/></g></svg>