<svg id="Outline" viewBox="0 0 64 64" xmlns="http://www.w3.org/2000/svg"><path d="m22.03 13.73h8.25c1.15 0 2.09-.94 2.09-2.09v-1.73c0-1.15-.94-2.09-2.09-2.09h-8.25c-1.15 0-2.09.94-2.09 2.09v1.73c0 1.15.94 2.09 2.09 2.09zm-.08-3.81s.04-.09.09-.09h8.25s.09.04.09.09v1.73s-.04.09-.09.09h-8.25s-.09-.04-.09-.09zm37.89 34.76c0-6.99-5.69-12.68-12.68-12.68-5.07 0-9.45 3-11.47 7.32l-2.53-.35v-2.01c.75-.48 1.46-1.04 2.11-1.68 2.51-2.46 3.89-5.76 3.89-9.28v-2c2.21 0 4-1.79 4-4s-1.79-4-4-4v-5c0-4.71-3.7-8-9-8h-8c-5.3 0-9 3.29-9 8v5c-2.21 0-4 1.79-4 4s1.79 4 4 4v1.6c0 4.7 2.4 8.86 6 11.25v2.11l-5.34.74c-1.57.22-3.06.75-4.42 1.56-3.23 1.95-5.24 5.51-5.24 9.29v9.44c0 .55.45 1 1 1h42c.55 0 1-.45 1-1v-2.7c6.52-.51 11.68-5.97 11.68-12.63zm-19.46 14.32h-2.3v-4.59c0-.55-.45-1-1-1h-21.81c-.55 0-1 .45-1 1v4.59h-2.3v-8h24.21c1.03 1.78 2.47 3.28 4.2 4.37zm-4.29 0h-19.81v-3.59h19.81zm-.83-10h-18.24v-7.72l2.15-.3c.02 1.61.83 3.11 2.18 4.01 1.46.98 3.14 1.46 4.82 1.46s3.36-.49 4.82-1.46c1.35-.9 2.15-2.39 2.18-4.01l1.81.25c-.31 1.1-.49 2.25-.49 3.44 0 1.52.28 2.97.78 4.32zm5.9-29c0 1.1-.9 2-2 2v-4c1.1 0 2 .9 2 2zm-19-15h8c3.48 0 7 1.86 7 6v5h-22v-5c0-4.14 3.52-6 7-6zm14.49 13-.84 2c-.17.34-.51.55-.89.55h-17.53c-.38 0-.72-.21-.87-.49l-.86-2.06zm-25.49 2c0-1.1.9-2 2-2v4c-1.1 0-2-.9-2-2zm4 5.6v-4.04c.56.63 1.36.99 2.23.99h17.53c.87 0 1.67-.37 2.24-1.02v4.47c0 2.98-1.17 5.76-3.29 7.85-2.12 2.08-4.97 3.18-7.91 3.15-5.95-.11-10.79-5.22-10.79-11.4zm10.76 13.4h.25c1.74 0 3.43-.34 5-1v2.91c0 .97-.48 1.87-1.29 2.41-2.25 1.5-5.17 1.5-7.42 0-.81-.54-1.29-1.44-1.29-2.41v-2.96c1.47.64 3.07 1.02 4.76 1.05zm-11.83 2.69.92-.13v7.44h-3.03v-6.76c.68-.26 1.39-.45 2.12-.55zm-7.93 8.87c0-2.89 1.46-5.61 3.82-7.25v15.7h-3.82v-8.44zm36.22 8.44v-2.59c1.18.48 2.45.79 3.78.89v1.7zm2.4-10c-1.54-.8-2.61-2.36-2.79-4.06-.16-1.5.33-2.94 1.28-4.02v2.69c0 .61.29 1.19.77 1.56l2.06 1.58c.62.48 1.5.48 2.12 0l2.06-1.58c.48-.37.77-.95.77-1.56v-2.69c.83.94 1.31 2.16 1.31 3.45 0 1.95-1.08 3.72-2.82 4.62-.33.17-.54.51-.54.89v5.31c-.6.1-1.21.17-1.84.17s-1.24-.07-1.84-.17v-5.3c0-.37-.21-.71-.54-.89zm6.22 5.63v-4.17c2.09-1.32 3.36-3.59 3.36-6.08 0-2.68-1.47-5.12-3.84-6.37-.31-.17-.68-.16-.98.03-.3.18-.48.51-.48.86v4.7s-1.89 1.46-1.89 1.46l-1.89-1.44v-4.72c0-.35-.18-.68-.48-.86s-.67-.19-.98-.03c-2.62 1.38-4.11 4.19-3.8 7.14.23 2.19 1.45 4.13 3.32 5.31v4.17c-3.99-1.55-6.84-5.42-6.84-9.95 0-5.89 4.79-10.68 10.68-10.68s10.68 4.79 10.68 10.68c0 4.53-2.84 8.4-6.84 9.95z"/></svg>